G75*
%MOIN*%
%OFA0B0*%
%FSLAX25Y25*%
%IPPOS*%
%LPD*%
%AMOC8*
5,1,8,0,0,1.08239X$1,22.5*
%
%ADD10C,0.00000*%
%ADD11C,0.00300*%
%ADD12C,0.00800*%
%ADD13C,0.00500*%
D10*
X0001000Y0001000D02*
X0001000Y0087535D01*
X0060921Y0087535D01*
X0060921Y0001000D01*
X0001000Y0001000D01*
D11*
X0016701Y0017095D02*
X0017346Y0017095D01*
X0017023Y0017095D02*
X0017023Y0019995D01*
X0016701Y0019995D02*
X0017346Y0019995D01*
X0018618Y0019995D02*
X0020229Y0017095D01*
X0020229Y0019995D01*
X0018618Y0019995D02*
X0018618Y0017095D01*
X0021736Y0017095D02*
X0021736Y0019995D01*
X0022542Y0019995D01*
X0022597Y0019993D01*
X0022652Y0019987D01*
X0022706Y0019978D01*
X0022759Y0019965D01*
X0022812Y0019948D01*
X0022863Y0019928D01*
X0022913Y0019905D01*
X0022961Y0019878D01*
X0023007Y0019847D01*
X0023051Y0019814D01*
X0023092Y0019778D01*
X0023131Y0019739D01*
X0023167Y0019698D01*
X0023200Y0019654D01*
X0023231Y0019608D01*
X0023258Y0019560D01*
X0023281Y0019510D01*
X0023301Y0019459D01*
X0023318Y0019406D01*
X0023331Y0019353D01*
X0023340Y0019299D01*
X0023346Y0019244D01*
X0023348Y0019189D01*
X0023346Y0019134D01*
X0023340Y0019079D01*
X0023331Y0019025D01*
X0023318Y0018972D01*
X0023301Y0018919D01*
X0023281Y0018868D01*
X0023258Y0018818D01*
X0023231Y0018770D01*
X0023200Y0018724D01*
X0023167Y0018680D01*
X0023131Y0018639D01*
X0023092Y0018600D01*
X0023051Y0018564D01*
X0023007Y0018531D01*
X0022961Y0018500D01*
X0022913Y0018473D01*
X0022863Y0018450D01*
X0022812Y0018430D01*
X0022759Y0018413D01*
X0022706Y0018400D01*
X0022652Y0018391D01*
X0022597Y0018385D01*
X0022542Y0018383D01*
X0022542Y0018384D02*
X0021736Y0018384D01*
X0021918Y0010192D02*
X0022884Y0008581D01*
X0023851Y0010192D01*
X0023851Y0007292D01*
X0021918Y0007292D02*
X0021918Y0010192D01*
X0020426Y0010192D02*
X0020426Y0007292D01*
X0018815Y0010192D01*
X0018815Y0007292D01*
X0017542Y0007292D02*
X0016898Y0007292D01*
X0017220Y0007292D02*
X0017220Y0010192D01*
X0016898Y0010192D02*
X0017542Y0010192D01*
X0017782Y0027095D02*
X0016977Y0027095D01*
X0016977Y0029995D01*
X0017782Y0029995D01*
X0017837Y0029993D01*
X0017892Y0029987D01*
X0017946Y0029978D01*
X0017999Y0029965D01*
X0018052Y0029948D01*
X0018103Y0029928D01*
X0018153Y0029905D01*
X0018201Y0029878D01*
X0018247Y0029847D01*
X0018291Y0029814D01*
X0018332Y0029778D01*
X0018371Y0029739D01*
X0018407Y0029698D01*
X0018440Y0029654D01*
X0018471Y0029608D01*
X0018498Y0029560D01*
X0018521Y0029510D01*
X0018541Y0029459D01*
X0018558Y0029406D01*
X0018571Y0029353D01*
X0018580Y0029299D01*
X0018586Y0029244D01*
X0018588Y0029189D01*
X0018588Y0027900D01*
X0018586Y0027845D01*
X0018580Y0027790D01*
X0018571Y0027736D01*
X0018558Y0027683D01*
X0018541Y0027630D01*
X0018521Y0027579D01*
X0018498Y0027529D01*
X0018471Y0027481D01*
X0018440Y0027435D01*
X0018407Y0027391D01*
X0018371Y0027350D01*
X0018332Y0027311D01*
X0018291Y0027275D01*
X0018247Y0027242D01*
X0018201Y0027211D01*
X0018153Y0027184D01*
X0018103Y0027161D01*
X0018052Y0027141D01*
X0017999Y0027124D01*
X0017946Y0027111D01*
X0017892Y0027102D01*
X0017837Y0027096D01*
X0017782Y0027094D01*
X0020049Y0027095D02*
X0020049Y0029995D01*
X0021660Y0027095D01*
X0021660Y0029995D01*
X0023016Y0029350D02*
X0023016Y0027739D01*
X0023018Y0027691D01*
X0023023Y0027643D01*
X0023032Y0027596D01*
X0023045Y0027549D01*
X0023061Y0027504D01*
X0023080Y0027460D01*
X0023102Y0027417D01*
X0023128Y0027376D01*
X0023157Y0027337D01*
X0023188Y0027301D01*
X0023222Y0027267D01*
X0023258Y0027236D01*
X0023297Y0027207D01*
X0023338Y0027181D01*
X0023381Y0027159D01*
X0023425Y0027140D01*
X0023470Y0027124D01*
X0023517Y0027111D01*
X0023564Y0027102D01*
X0023612Y0027097D01*
X0023660Y0027095D01*
X0024305Y0027095D01*
X0023016Y0029350D02*
X0023018Y0029401D01*
X0023024Y0029451D01*
X0023034Y0029500D01*
X0023048Y0029549D01*
X0023065Y0029596D01*
X0023086Y0029642D01*
X0023111Y0029686D01*
X0023139Y0029729D01*
X0023170Y0029768D01*
X0023205Y0029805D01*
X0023242Y0029840D01*
X0023281Y0029871D01*
X0023324Y0029899D01*
X0023368Y0029924D01*
X0023414Y0029945D01*
X0023461Y0029962D01*
X0023510Y0029976D01*
X0023559Y0029986D01*
X0023609Y0029992D01*
X0023660Y0029994D01*
X0023660Y0029995D02*
X0024305Y0029995D01*
X0022902Y0037252D02*
X0022902Y0040152D01*
X0022096Y0040152D02*
X0023708Y0040152D01*
X0020793Y0038461D02*
X0019907Y0038944D01*
X0020229Y0040152D02*
X0020294Y0040150D01*
X0020358Y0040145D01*
X0020423Y0040136D01*
X0020486Y0040124D01*
X0020549Y0040109D01*
X0020611Y0040090D01*
X0020672Y0040068D01*
X0020731Y0040043D01*
X0020790Y0040014D01*
X0020846Y0039982D01*
X0020901Y0039948D01*
X0020954Y0039910D01*
X0019906Y0038944D02*
X0019866Y0038970D01*
X0019827Y0038999D01*
X0019790Y0039031D01*
X0019756Y0039066D01*
X0019725Y0039103D01*
X0019696Y0039142D01*
X0019670Y0039183D01*
X0019648Y0039226D01*
X0019629Y0039271D01*
X0019613Y0039317D01*
X0019600Y0039363D01*
X0019591Y0039411D01*
X0019586Y0039459D01*
X0019584Y0039508D01*
X0019585Y0039508D02*
X0019587Y0039556D01*
X0019592Y0039604D01*
X0019601Y0039651D01*
X0019614Y0039698D01*
X0019630Y0039743D01*
X0019649Y0039787D01*
X0019671Y0039830D01*
X0019697Y0039871D01*
X0019726Y0039910D01*
X0019757Y0039946D01*
X0019791Y0039980D01*
X0019827Y0040012D01*
X0019866Y0040040D01*
X0019907Y0040066D01*
X0019950Y0040088D01*
X0019994Y0040107D01*
X0020039Y0040123D01*
X0020086Y0040136D01*
X0020133Y0040145D01*
X0020181Y0040150D01*
X0020229Y0040152D01*
X0019505Y0037656D02*
X0019556Y0037606D01*
X0019611Y0037559D01*
X0019667Y0037516D01*
X0019726Y0037475D01*
X0019787Y0037437D01*
X0019850Y0037403D01*
X0019915Y0037372D01*
X0019981Y0037344D01*
X0020048Y0037320D01*
X0020117Y0037300D01*
X0020187Y0037283D01*
X0020257Y0037270D01*
X0020328Y0037261D01*
X0020399Y0037255D01*
X0020471Y0037253D01*
X0020519Y0037255D01*
X0020567Y0037260D01*
X0020614Y0037269D01*
X0020661Y0037282D01*
X0020706Y0037298D01*
X0020750Y0037317D01*
X0020793Y0037339D01*
X0020834Y0037365D01*
X0020873Y0037394D01*
X0020909Y0037425D01*
X0020943Y0037459D01*
X0020974Y0037495D01*
X0021003Y0037534D01*
X0021029Y0037575D01*
X0021051Y0037618D01*
X0021070Y0037662D01*
X0021086Y0037707D01*
X0021099Y0037754D01*
X0021108Y0037801D01*
X0021113Y0037849D01*
X0021115Y0037897D01*
X0021116Y0037897D02*
X0021114Y0037946D01*
X0021109Y0037994D01*
X0021100Y0038042D01*
X0021087Y0038088D01*
X0021071Y0038134D01*
X0021052Y0038179D01*
X0021030Y0038222D01*
X0021004Y0038263D01*
X0020975Y0038302D01*
X0020944Y0038339D01*
X0020910Y0038374D01*
X0020873Y0038406D01*
X0020834Y0038435D01*
X0020794Y0038461D01*
X0018352Y0037252D02*
X0017707Y0038541D01*
X0017546Y0038541D02*
X0016741Y0038541D01*
X0017546Y0038541D02*
X0017601Y0038543D01*
X0017656Y0038549D01*
X0017710Y0038558D01*
X0017763Y0038571D01*
X0017816Y0038588D01*
X0017867Y0038608D01*
X0017917Y0038631D01*
X0017965Y0038658D01*
X0018011Y0038689D01*
X0018055Y0038722D01*
X0018096Y0038758D01*
X0018135Y0038797D01*
X0018171Y0038838D01*
X0018204Y0038882D01*
X0018235Y0038928D01*
X0018262Y0038976D01*
X0018285Y0039026D01*
X0018305Y0039077D01*
X0018322Y0039130D01*
X0018335Y0039183D01*
X0018344Y0039237D01*
X0018350Y0039292D01*
X0018352Y0039347D01*
X0018350Y0039402D01*
X0018344Y0039457D01*
X0018335Y0039511D01*
X0018322Y0039564D01*
X0018305Y0039617D01*
X0018285Y0039668D01*
X0018262Y0039718D01*
X0018235Y0039766D01*
X0018204Y0039812D01*
X0018171Y0039856D01*
X0018135Y0039897D01*
X0018096Y0039936D01*
X0018055Y0039972D01*
X0018011Y0040005D01*
X0017965Y0040036D01*
X0017917Y0040063D01*
X0017867Y0040086D01*
X0017816Y0040106D01*
X0017763Y0040123D01*
X0017710Y0040136D01*
X0017656Y0040145D01*
X0017601Y0040151D01*
X0017546Y0040153D01*
X0017546Y0040152D02*
X0016741Y0040152D01*
X0016741Y0037252D01*
X0016662Y0047213D02*
X0017306Y0047213D01*
X0016984Y0047213D02*
X0016984Y0050113D01*
X0016662Y0050113D02*
X0017306Y0050113D01*
X0018578Y0050113D02*
X0018578Y0047213D01*
X0019384Y0047213D01*
X0019439Y0047215D01*
X0019494Y0047221D01*
X0019548Y0047230D01*
X0019601Y0047243D01*
X0019654Y0047260D01*
X0019705Y0047280D01*
X0019755Y0047303D01*
X0019803Y0047330D01*
X0019849Y0047361D01*
X0019893Y0047394D01*
X0019934Y0047430D01*
X0019973Y0047469D01*
X0020009Y0047510D01*
X0020042Y0047554D01*
X0020073Y0047600D01*
X0020100Y0047648D01*
X0020123Y0047698D01*
X0020143Y0047749D01*
X0020160Y0047802D01*
X0020173Y0047855D01*
X0020182Y0047909D01*
X0020188Y0047964D01*
X0020190Y0048019D01*
X0020190Y0049307D01*
X0020188Y0049362D01*
X0020182Y0049417D01*
X0020173Y0049471D01*
X0020160Y0049524D01*
X0020143Y0049577D01*
X0020123Y0049628D01*
X0020100Y0049678D01*
X0020073Y0049726D01*
X0020042Y0049772D01*
X0020009Y0049816D01*
X0019973Y0049857D01*
X0019934Y0049896D01*
X0019893Y0049932D01*
X0019849Y0049965D01*
X0019803Y0049996D01*
X0019755Y0050023D01*
X0019705Y0050046D01*
X0019654Y0050066D01*
X0019601Y0050083D01*
X0019548Y0050096D01*
X0019494Y0050105D01*
X0019439Y0050111D01*
X0019384Y0050113D01*
X0018578Y0050113D01*
X0021635Y0047938D02*
X0023085Y0047938D01*
X0023327Y0047213D02*
X0022360Y0050113D01*
X0021393Y0047213D01*
X0024242Y0050113D02*
X0025854Y0050113D01*
X0025048Y0050113D02*
X0025048Y0047213D01*
X0025368Y0057213D02*
X0024401Y0058985D01*
X0023757Y0058341D02*
X0025368Y0060113D01*
X0023757Y0060113D02*
X0023757Y0057213D01*
X0022510Y0057213D02*
X0021221Y0057213D01*
X0021221Y0060113D01*
X0019998Y0060113D02*
X0019354Y0060113D01*
X0019303Y0060111D01*
X0019253Y0060105D01*
X0019204Y0060095D01*
X0019155Y0060081D01*
X0019108Y0060064D01*
X0019062Y0060043D01*
X0019018Y0060018D01*
X0018975Y0059990D01*
X0018936Y0059959D01*
X0018899Y0059924D01*
X0018864Y0059887D01*
X0018833Y0059848D01*
X0018805Y0059805D01*
X0018780Y0059761D01*
X0018759Y0059715D01*
X0018742Y0059668D01*
X0018728Y0059619D01*
X0018718Y0059570D01*
X0018712Y0059520D01*
X0018710Y0059469D01*
X0018710Y0057857D01*
X0018712Y0057809D01*
X0018717Y0057761D01*
X0018726Y0057714D01*
X0018739Y0057667D01*
X0018755Y0057622D01*
X0018774Y0057578D01*
X0018796Y0057535D01*
X0018822Y0057494D01*
X0018851Y0057455D01*
X0018882Y0057419D01*
X0018916Y0057385D01*
X0018952Y0057354D01*
X0018991Y0057325D01*
X0019032Y0057299D01*
X0019075Y0057277D01*
X0019119Y0057258D01*
X0019164Y0057242D01*
X0019211Y0057229D01*
X0019258Y0057220D01*
X0019306Y0057215D01*
X0019354Y0057213D01*
X0019998Y0057213D01*
X0017542Y0057213D02*
X0016898Y0057213D01*
X0017220Y0057213D02*
X0017220Y0060113D01*
X0016898Y0060113D02*
X0017542Y0060113D01*
X0017389Y0067685D02*
X0017389Y0070585D01*
X0018194Y0070585D02*
X0016583Y0070585D01*
X0019110Y0070585D02*
X0021043Y0067685D01*
X0022151Y0067685D02*
X0023762Y0067685D01*
X0022151Y0067685D02*
X0023520Y0069297D01*
X0023037Y0070585D02*
X0022978Y0070583D01*
X0022920Y0070578D01*
X0022862Y0070568D01*
X0022805Y0070556D01*
X0022749Y0070539D01*
X0022694Y0070520D01*
X0022640Y0070496D01*
X0022588Y0070470D01*
X0022538Y0070440D01*
X0022489Y0070407D01*
X0022443Y0070371D01*
X0022399Y0070332D01*
X0022358Y0070291D01*
X0022319Y0070247D01*
X0022283Y0070201D01*
X0022251Y0070152D01*
X0022221Y0070102D01*
X0022194Y0070050D01*
X0022171Y0069996D01*
X0022151Y0069941D01*
X0023520Y0069296D02*
X0023557Y0069333D01*
X0023591Y0069373D01*
X0023623Y0069415D01*
X0023651Y0069460D01*
X0023677Y0069506D01*
X0023699Y0069553D01*
X0023718Y0069602D01*
X0023734Y0069652D01*
X0023746Y0069703D01*
X0023755Y0069755D01*
X0023760Y0069807D01*
X0023762Y0069860D01*
X0023760Y0069912D01*
X0023755Y0069963D01*
X0023745Y0070014D01*
X0023733Y0070064D01*
X0023716Y0070113D01*
X0023696Y0070161D01*
X0023673Y0070207D01*
X0023647Y0070252D01*
X0023617Y0070294D01*
X0023585Y0070335D01*
X0023550Y0070373D01*
X0023512Y0070408D01*
X0023471Y0070440D01*
X0023429Y0070470D01*
X0023384Y0070496D01*
X0023338Y0070519D01*
X0023290Y0070539D01*
X0023241Y0070556D01*
X0023191Y0070568D01*
X0023140Y0070578D01*
X0023089Y0070583D01*
X0023037Y0070585D01*
X0021043Y0070585D02*
X0019110Y0067685D01*
X0019813Y0077567D02*
X0019813Y0080467D01*
X0021424Y0077567D01*
X0021424Y0080467D01*
X0022885Y0080467D02*
X0023690Y0080467D01*
X0023690Y0080468D02*
X0023745Y0080466D01*
X0023800Y0080460D01*
X0023854Y0080451D01*
X0023907Y0080438D01*
X0023960Y0080421D01*
X0024011Y0080401D01*
X0024061Y0080378D01*
X0024109Y0080351D01*
X0024155Y0080320D01*
X0024199Y0080287D01*
X0024240Y0080251D01*
X0024279Y0080212D01*
X0024315Y0080171D01*
X0024348Y0080127D01*
X0024379Y0080081D01*
X0024406Y0080033D01*
X0024429Y0079983D01*
X0024449Y0079932D01*
X0024466Y0079879D01*
X0024479Y0079826D01*
X0024488Y0079772D01*
X0024494Y0079717D01*
X0024496Y0079662D01*
X0024496Y0078373D01*
X0024494Y0078318D01*
X0024488Y0078263D01*
X0024479Y0078209D01*
X0024466Y0078156D01*
X0024449Y0078103D01*
X0024429Y0078052D01*
X0024406Y0078002D01*
X0024379Y0077954D01*
X0024348Y0077908D01*
X0024315Y0077864D01*
X0024279Y0077823D01*
X0024240Y0077784D01*
X0024199Y0077748D01*
X0024155Y0077715D01*
X0024109Y0077684D01*
X0024061Y0077657D01*
X0024011Y0077634D01*
X0023960Y0077614D01*
X0023907Y0077597D01*
X0023854Y0077584D01*
X0023800Y0077575D01*
X0023745Y0077569D01*
X0023690Y0077567D01*
X0022885Y0077567D01*
X0022885Y0080467D01*
X0018352Y0080467D02*
X0017385Y0080467D01*
X0017334Y0080465D01*
X0017284Y0080459D01*
X0017235Y0080449D01*
X0017186Y0080435D01*
X0017139Y0080418D01*
X0017093Y0080397D01*
X0017049Y0080372D01*
X0017006Y0080344D01*
X0016967Y0080313D01*
X0016930Y0080278D01*
X0016895Y0080241D01*
X0016864Y0080202D01*
X0016836Y0080159D01*
X0016811Y0080115D01*
X0016790Y0080069D01*
X0016773Y0080022D01*
X0016759Y0079973D01*
X0016749Y0079924D01*
X0016743Y0079874D01*
X0016741Y0079823D01*
X0016741Y0078212D01*
X0016743Y0078164D01*
X0016748Y0078116D01*
X0016757Y0078069D01*
X0016770Y0078022D01*
X0016786Y0077977D01*
X0016805Y0077933D01*
X0016827Y0077890D01*
X0016853Y0077849D01*
X0016882Y0077810D01*
X0016913Y0077774D01*
X0016947Y0077740D01*
X0016983Y0077709D01*
X0017022Y0077680D01*
X0017063Y0077654D01*
X0017106Y0077632D01*
X0017150Y0077613D01*
X0017195Y0077597D01*
X0017242Y0077584D01*
X0017289Y0077575D01*
X0017337Y0077570D01*
X0017385Y0077568D01*
X0017385Y0077567D02*
X0018352Y0077567D01*
X0018352Y0079178D01*
X0017868Y0079178D01*
X0035402Y0079326D02*
X0037013Y0079326D01*
X0036208Y0079326D02*
X0036208Y0076426D01*
X0038397Y0078117D02*
X0039283Y0077634D01*
X0038961Y0076426D02*
X0038889Y0076428D01*
X0038818Y0076434D01*
X0038747Y0076443D01*
X0038677Y0076456D01*
X0038607Y0076473D01*
X0038538Y0076493D01*
X0038471Y0076517D01*
X0038405Y0076545D01*
X0038340Y0076576D01*
X0038277Y0076610D01*
X0038216Y0076648D01*
X0038157Y0076689D01*
X0038101Y0076732D01*
X0038046Y0076779D01*
X0037995Y0076829D01*
X0039284Y0077634D02*
X0039324Y0077608D01*
X0039363Y0077579D01*
X0039400Y0077547D01*
X0039434Y0077512D01*
X0039465Y0077475D01*
X0039494Y0077436D01*
X0039520Y0077395D01*
X0039542Y0077352D01*
X0039561Y0077307D01*
X0039577Y0077261D01*
X0039590Y0077215D01*
X0039599Y0077167D01*
X0039604Y0077119D01*
X0039606Y0077070D01*
X0039605Y0077070D02*
X0039603Y0077022D01*
X0039598Y0076974D01*
X0039589Y0076927D01*
X0039576Y0076880D01*
X0039560Y0076835D01*
X0039541Y0076791D01*
X0039519Y0076748D01*
X0039493Y0076707D01*
X0039464Y0076668D01*
X0039433Y0076632D01*
X0039399Y0076598D01*
X0039363Y0076567D01*
X0039324Y0076538D01*
X0039283Y0076512D01*
X0039240Y0076490D01*
X0039196Y0076471D01*
X0039151Y0076455D01*
X0039104Y0076442D01*
X0039057Y0076433D01*
X0039009Y0076428D01*
X0038961Y0076426D01*
X0039444Y0079083D02*
X0039391Y0079121D01*
X0039336Y0079155D01*
X0039280Y0079187D01*
X0039221Y0079216D01*
X0039162Y0079241D01*
X0039101Y0079263D01*
X0039039Y0079282D01*
X0038976Y0079297D01*
X0038913Y0079309D01*
X0038848Y0079318D01*
X0038784Y0079323D01*
X0038719Y0079325D01*
X0038671Y0079323D01*
X0038623Y0079318D01*
X0038576Y0079309D01*
X0038529Y0079296D01*
X0038484Y0079280D01*
X0038440Y0079261D01*
X0038397Y0079239D01*
X0038356Y0079213D01*
X0038317Y0079185D01*
X0038281Y0079153D01*
X0038247Y0079119D01*
X0038216Y0079083D01*
X0038187Y0079044D01*
X0038161Y0079003D01*
X0038139Y0078960D01*
X0038120Y0078916D01*
X0038104Y0078871D01*
X0038091Y0078824D01*
X0038082Y0078777D01*
X0038077Y0078729D01*
X0038075Y0078681D01*
X0038074Y0078681D02*
X0038076Y0078632D01*
X0038081Y0078584D01*
X0038090Y0078536D01*
X0038103Y0078490D01*
X0038119Y0078444D01*
X0038138Y0078399D01*
X0038160Y0078356D01*
X0038186Y0078315D01*
X0038215Y0078276D01*
X0038246Y0078239D01*
X0038280Y0078204D01*
X0038317Y0078172D01*
X0038356Y0078143D01*
X0038396Y0078117D01*
X0040874Y0077231D02*
X0040874Y0079326D01*
X0042485Y0079326D02*
X0042485Y0077231D01*
X0042486Y0077231D02*
X0042484Y0077176D01*
X0042478Y0077121D01*
X0042469Y0077067D01*
X0042456Y0077014D01*
X0042439Y0076961D01*
X0042419Y0076910D01*
X0042396Y0076860D01*
X0042369Y0076812D01*
X0042338Y0076766D01*
X0042305Y0076722D01*
X0042269Y0076681D01*
X0042230Y0076642D01*
X0042189Y0076606D01*
X0042145Y0076573D01*
X0042099Y0076542D01*
X0042051Y0076515D01*
X0042001Y0076492D01*
X0041950Y0076472D01*
X0041897Y0076455D01*
X0041844Y0076442D01*
X0041790Y0076433D01*
X0041735Y0076427D01*
X0041680Y0076425D01*
X0041625Y0076427D01*
X0041570Y0076433D01*
X0041516Y0076442D01*
X0041463Y0076455D01*
X0041410Y0076472D01*
X0041359Y0076492D01*
X0041309Y0076515D01*
X0041261Y0076542D01*
X0041215Y0076573D01*
X0041171Y0076606D01*
X0041130Y0076642D01*
X0041091Y0076681D01*
X0041055Y0076722D01*
X0041022Y0076766D01*
X0040991Y0076812D01*
X0040964Y0076860D01*
X0040941Y0076910D01*
X0040921Y0076961D01*
X0040904Y0077014D01*
X0040891Y0077067D01*
X0040882Y0077121D01*
X0040876Y0077176D01*
X0040874Y0077231D01*
X0043992Y0077714D02*
X0044798Y0077714D01*
X0044853Y0077716D01*
X0044908Y0077722D01*
X0044962Y0077731D01*
X0045015Y0077744D01*
X0045068Y0077761D01*
X0045119Y0077781D01*
X0045169Y0077804D01*
X0045217Y0077831D01*
X0045263Y0077862D01*
X0045307Y0077895D01*
X0045348Y0077931D01*
X0045387Y0077970D01*
X0045423Y0078011D01*
X0045456Y0078055D01*
X0045487Y0078101D01*
X0045514Y0078149D01*
X0045537Y0078199D01*
X0045557Y0078250D01*
X0045574Y0078303D01*
X0045587Y0078356D01*
X0045596Y0078410D01*
X0045602Y0078465D01*
X0045604Y0078520D01*
X0045602Y0078575D01*
X0045596Y0078630D01*
X0045587Y0078684D01*
X0045574Y0078737D01*
X0045557Y0078790D01*
X0045537Y0078841D01*
X0045514Y0078891D01*
X0045487Y0078939D01*
X0045456Y0078985D01*
X0045423Y0079029D01*
X0045387Y0079070D01*
X0045348Y0079109D01*
X0045307Y0079145D01*
X0045263Y0079178D01*
X0045217Y0079209D01*
X0045169Y0079236D01*
X0045119Y0079259D01*
X0045068Y0079279D01*
X0045015Y0079296D01*
X0044962Y0079309D01*
X0044908Y0079318D01*
X0044853Y0079324D01*
X0044798Y0079326D01*
X0043992Y0079326D01*
X0043992Y0076426D01*
X0044320Y0070113D02*
X0043514Y0070113D01*
X0043514Y0067213D01*
X0044320Y0067213D01*
X0044375Y0067215D01*
X0044430Y0067221D01*
X0044484Y0067230D01*
X0044537Y0067243D01*
X0044590Y0067260D01*
X0044641Y0067280D01*
X0044691Y0067303D01*
X0044739Y0067330D01*
X0044785Y0067361D01*
X0044829Y0067394D01*
X0044870Y0067430D01*
X0044909Y0067469D01*
X0044945Y0067510D01*
X0044978Y0067554D01*
X0045009Y0067600D01*
X0045036Y0067648D01*
X0045059Y0067698D01*
X0045079Y0067749D01*
X0045096Y0067802D01*
X0045109Y0067855D01*
X0045118Y0067909D01*
X0045124Y0067964D01*
X0045126Y0068019D01*
X0045126Y0069307D01*
X0045124Y0069362D01*
X0045118Y0069417D01*
X0045109Y0069471D01*
X0045096Y0069524D01*
X0045079Y0069577D01*
X0045059Y0069628D01*
X0045036Y0069678D01*
X0045009Y0069726D01*
X0044978Y0069772D01*
X0044945Y0069816D01*
X0044909Y0069857D01*
X0044870Y0069896D01*
X0044829Y0069932D01*
X0044785Y0069965D01*
X0044739Y0069996D01*
X0044691Y0070023D01*
X0044641Y0070046D01*
X0044590Y0070066D01*
X0044537Y0070083D01*
X0044484Y0070096D01*
X0044430Y0070105D01*
X0044375Y0070111D01*
X0044320Y0070113D01*
X0042054Y0070113D02*
X0042054Y0067213D01*
X0040442Y0070113D01*
X0040442Y0067213D01*
X0038982Y0067213D02*
X0038015Y0067213D01*
X0037967Y0067215D01*
X0037919Y0067220D01*
X0037872Y0067229D01*
X0037825Y0067242D01*
X0037780Y0067258D01*
X0037736Y0067277D01*
X0037693Y0067299D01*
X0037652Y0067325D01*
X0037613Y0067354D01*
X0037577Y0067385D01*
X0037543Y0067419D01*
X0037512Y0067455D01*
X0037483Y0067494D01*
X0037457Y0067535D01*
X0037435Y0067578D01*
X0037416Y0067622D01*
X0037400Y0067667D01*
X0037387Y0067714D01*
X0037378Y0067761D01*
X0037373Y0067809D01*
X0037371Y0067857D01*
X0037370Y0067857D02*
X0037370Y0069469D01*
X0037371Y0069469D02*
X0037373Y0069520D01*
X0037379Y0069570D01*
X0037389Y0069619D01*
X0037403Y0069668D01*
X0037420Y0069715D01*
X0037441Y0069761D01*
X0037466Y0069805D01*
X0037494Y0069848D01*
X0037525Y0069887D01*
X0037560Y0069924D01*
X0037597Y0069959D01*
X0037636Y0069990D01*
X0037679Y0070018D01*
X0037723Y0070043D01*
X0037769Y0070064D01*
X0037816Y0070081D01*
X0037865Y0070095D01*
X0037914Y0070105D01*
X0037964Y0070111D01*
X0038015Y0070113D01*
X0038982Y0070113D01*
X0038982Y0068824D02*
X0038982Y0067213D01*
X0038982Y0068824D02*
X0038498Y0068824D01*
X0038115Y0060625D02*
X0036504Y0060625D01*
X0037310Y0060625D02*
X0037310Y0057725D01*
X0039031Y0057725D02*
X0040965Y0060625D01*
X0042072Y0060625D02*
X0043039Y0060625D01*
X0043039Y0060624D02*
X0043088Y0060622D01*
X0043137Y0060616D01*
X0043186Y0060607D01*
X0043233Y0060594D01*
X0043280Y0060577D01*
X0043325Y0060557D01*
X0043368Y0060534D01*
X0043410Y0060507D01*
X0043449Y0060477D01*
X0043486Y0060444D01*
X0043520Y0060408D01*
X0043551Y0060370D01*
X0043580Y0060330D01*
X0043605Y0060288D01*
X0043627Y0060243D01*
X0043645Y0060198D01*
X0043660Y0060151D01*
X0043671Y0060103D01*
X0043679Y0060054D01*
X0043683Y0060005D01*
X0043683Y0059955D01*
X0043679Y0059906D01*
X0043671Y0059857D01*
X0043660Y0059809D01*
X0043645Y0059762D01*
X0043627Y0059717D01*
X0043605Y0059672D01*
X0043580Y0059630D01*
X0043551Y0059590D01*
X0043520Y0059552D01*
X0043486Y0059516D01*
X0043449Y0059483D01*
X0043410Y0059453D01*
X0043368Y0059426D01*
X0043325Y0059403D01*
X0043280Y0059383D01*
X0043233Y0059366D01*
X0043186Y0059353D01*
X0043137Y0059344D01*
X0043088Y0059338D01*
X0043039Y0059336D01*
X0042395Y0059336D01*
X0042878Y0059336D02*
X0042933Y0059334D01*
X0042988Y0059328D01*
X0043042Y0059319D01*
X0043095Y0059306D01*
X0043148Y0059289D01*
X0043199Y0059269D01*
X0043249Y0059246D01*
X0043297Y0059219D01*
X0043343Y0059188D01*
X0043387Y0059155D01*
X0043428Y0059119D01*
X0043467Y0059080D01*
X0043503Y0059039D01*
X0043536Y0058995D01*
X0043567Y0058949D01*
X0043594Y0058901D01*
X0043617Y0058851D01*
X0043637Y0058800D01*
X0043654Y0058747D01*
X0043667Y0058694D01*
X0043676Y0058640D01*
X0043682Y0058585D01*
X0043684Y0058530D01*
X0043682Y0058475D01*
X0043676Y0058420D01*
X0043667Y0058366D01*
X0043654Y0058313D01*
X0043637Y0058260D01*
X0043617Y0058209D01*
X0043594Y0058159D01*
X0043567Y0058111D01*
X0043536Y0058065D01*
X0043503Y0058021D01*
X0043467Y0057980D01*
X0043428Y0057941D01*
X0043387Y0057905D01*
X0043343Y0057872D01*
X0043297Y0057841D01*
X0043249Y0057814D01*
X0043199Y0057791D01*
X0043148Y0057771D01*
X0043095Y0057754D01*
X0043042Y0057741D01*
X0042988Y0057732D01*
X0042933Y0057726D01*
X0042878Y0057724D01*
X0042878Y0057725D02*
X0042072Y0057725D01*
X0040965Y0057725D02*
X0039031Y0060625D01*
X0038963Y0049916D02*
X0038963Y0047016D01*
X0040685Y0047016D02*
X0042618Y0049916D01*
X0043726Y0049272D02*
X0044531Y0049916D01*
X0044531Y0047016D01*
X0043726Y0047016D02*
X0045337Y0047016D01*
X0042618Y0047016D02*
X0040685Y0049916D01*
X0039769Y0049916D02*
X0038158Y0049916D01*
X0040839Y0040625D02*
X0040839Y0038530D01*
X0040841Y0038475D01*
X0040847Y0038420D01*
X0040856Y0038366D01*
X0040869Y0038313D01*
X0040886Y0038260D01*
X0040906Y0038209D01*
X0040929Y0038159D01*
X0040956Y0038111D01*
X0040987Y0038065D01*
X0041020Y0038021D01*
X0041056Y0037980D01*
X0041095Y0037941D01*
X0041136Y0037905D01*
X0041180Y0037872D01*
X0041226Y0037841D01*
X0041274Y0037814D01*
X0041324Y0037791D01*
X0041375Y0037771D01*
X0041428Y0037754D01*
X0041481Y0037741D01*
X0041535Y0037732D01*
X0041590Y0037726D01*
X0041645Y0037724D01*
X0041700Y0037726D01*
X0041755Y0037732D01*
X0041809Y0037741D01*
X0041862Y0037754D01*
X0041915Y0037771D01*
X0041966Y0037791D01*
X0042016Y0037814D01*
X0042064Y0037841D01*
X0042110Y0037872D01*
X0042154Y0037905D01*
X0042195Y0037941D01*
X0042234Y0037980D01*
X0042270Y0038021D01*
X0042303Y0038065D01*
X0042334Y0038111D01*
X0042361Y0038159D01*
X0042384Y0038209D01*
X0042404Y0038260D01*
X0042421Y0038313D01*
X0042434Y0038366D01*
X0042443Y0038420D01*
X0042449Y0038475D01*
X0042451Y0038530D01*
X0042451Y0040625D01*
X0043958Y0040625D02*
X0044763Y0040625D01*
X0044818Y0040623D01*
X0044873Y0040617D01*
X0044927Y0040608D01*
X0044980Y0040595D01*
X0045033Y0040578D01*
X0045084Y0040558D01*
X0045134Y0040535D01*
X0045182Y0040508D01*
X0045228Y0040477D01*
X0045272Y0040444D01*
X0045313Y0040408D01*
X0045352Y0040369D01*
X0045388Y0040328D01*
X0045421Y0040284D01*
X0045452Y0040238D01*
X0045479Y0040190D01*
X0045502Y0040140D01*
X0045522Y0040089D01*
X0045539Y0040036D01*
X0045552Y0039983D01*
X0045561Y0039929D01*
X0045567Y0039874D01*
X0045569Y0039819D01*
X0045567Y0039764D01*
X0045561Y0039709D01*
X0045552Y0039655D01*
X0045539Y0039602D01*
X0045522Y0039549D01*
X0045502Y0039498D01*
X0045479Y0039448D01*
X0045452Y0039400D01*
X0045421Y0039354D01*
X0045388Y0039310D01*
X0045352Y0039269D01*
X0045313Y0039230D01*
X0045272Y0039194D01*
X0045228Y0039161D01*
X0045182Y0039130D01*
X0045134Y0039103D01*
X0045084Y0039080D01*
X0045033Y0039060D01*
X0044980Y0039043D01*
X0044927Y0039030D01*
X0044873Y0039021D01*
X0044818Y0039015D01*
X0044763Y0039013D01*
X0044763Y0039014D02*
X0043958Y0039014D01*
X0043958Y0037725D02*
X0043958Y0040625D01*
X0039248Y0038933D02*
X0038362Y0039416D01*
X0038684Y0040624D02*
X0038749Y0040622D01*
X0038813Y0040617D01*
X0038878Y0040608D01*
X0038941Y0040596D01*
X0039004Y0040581D01*
X0039066Y0040562D01*
X0039127Y0040540D01*
X0039186Y0040515D01*
X0039245Y0040486D01*
X0039301Y0040454D01*
X0039356Y0040420D01*
X0039409Y0040382D01*
X0038361Y0039416D02*
X0038321Y0039442D01*
X0038282Y0039471D01*
X0038245Y0039503D01*
X0038211Y0039538D01*
X0038180Y0039575D01*
X0038151Y0039614D01*
X0038125Y0039655D01*
X0038103Y0039698D01*
X0038084Y0039743D01*
X0038068Y0039789D01*
X0038055Y0039835D01*
X0038046Y0039883D01*
X0038041Y0039931D01*
X0038039Y0039980D01*
X0038040Y0039980D02*
X0038042Y0040028D01*
X0038047Y0040076D01*
X0038056Y0040123D01*
X0038069Y0040170D01*
X0038085Y0040215D01*
X0038104Y0040259D01*
X0038126Y0040302D01*
X0038152Y0040343D01*
X0038181Y0040382D01*
X0038212Y0040418D01*
X0038246Y0040452D01*
X0038282Y0040484D01*
X0038321Y0040512D01*
X0038362Y0040538D01*
X0038405Y0040560D01*
X0038449Y0040579D01*
X0038494Y0040595D01*
X0038541Y0040608D01*
X0038588Y0040617D01*
X0038636Y0040622D01*
X0038684Y0040624D01*
X0037960Y0038128D02*
X0038011Y0038078D01*
X0038066Y0038031D01*
X0038122Y0037988D01*
X0038181Y0037947D01*
X0038242Y0037909D01*
X0038305Y0037875D01*
X0038370Y0037844D01*
X0038436Y0037816D01*
X0038503Y0037792D01*
X0038572Y0037772D01*
X0038642Y0037755D01*
X0038712Y0037742D01*
X0038783Y0037733D01*
X0038854Y0037727D01*
X0038926Y0037725D01*
X0038974Y0037727D01*
X0039022Y0037732D01*
X0039069Y0037741D01*
X0039116Y0037754D01*
X0039161Y0037770D01*
X0039205Y0037789D01*
X0039248Y0037811D01*
X0039289Y0037837D01*
X0039328Y0037866D01*
X0039364Y0037897D01*
X0039398Y0037931D01*
X0039429Y0037967D01*
X0039458Y0038006D01*
X0039484Y0038047D01*
X0039506Y0038090D01*
X0039525Y0038134D01*
X0039541Y0038179D01*
X0039554Y0038226D01*
X0039563Y0038273D01*
X0039568Y0038321D01*
X0039570Y0038369D01*
X0039571Y0038369D02*
X0039569Y0038418D01*
X0039564Y0038466D01*
X0039555Y0038514D01*
X0039542Y0038560D01*
X0039526Y0038606D01*
X0039507Y0038651D01*
X0039485Y0038694D01*
X0039459Y0038735D01*
X0039430Y0038774D01*
X0039399Y0038811D01*
X0039365Y0038846D01*
X0039328Y0038878D01*
X0039289Y0038907D01*
X0039249Y0038933D01*
X0036787Y0038530D02*
X0036787Y0039819D01*
X0036785Y0039874D01*
X0036779Y0039929D01*
X0036770Y0039983D01*
X0036757Y0040036D01*
X0036740Y0040089D01*
X0036720Y0040140D01*
X0036697Y0040190D01*
X0036670Y0040238D01*
X0036639Y0040284D01*
X0036606Y0040328D01*
X0036570Y0040369D01*
X0036531Y0040408D01*
X0036490Y0040444D01*
X0036446Y0040477D01*
X0036400Y0040508D01*
X0036352Y0040535D01*
X0036302Y0040558D01*
X0036251Y0040578D01*
X0036198Y0040595D01*
X0036145Y0040608D01*
X0036091Y0040617D01*
X0036036Y0040623D01*
X0035981Y0040625D01*
X0035926Y0040623D01*
X0035871Y0040617D01*
X0035817Y0040608D01*
X0035764Y0040595D01*
X0035711Y0040578D01*
X0035660Y0040558D01*
X0035610Y0040535D01*
X0035562Y0040508D01*
X0035516Y0040477D01*
X0035472Y0040444D01*
X0035431Y0040408D01*
X0035392Y0040369D01*
X0035356Y0040328D01*
X0035323Y0040284D01*
X0035292Y0040238D01*
X0035265Y0040190D01*
X0035242Y0040140D01*
X0035222Y0040089D01*
X0035205Y0040036D01*
X0035192Y0039983D01*
X0035183Y0039929D01*
X0035177Y0039874D01*
X0035175Y0039819D01*
X0035175Y0038530D01*
X0035177Y0038475D01*
X0035183Y0038420D01*
X0035192Y0038366D01*
X0035205Y0038313D01*
X0035222Y0038260D01*
X0035242Y0038209D01*
X0035265Y0038159D01*
X0035292Y0038111D01*
X0035323Y0038065D01*
X0035356Y0038021D01*
X0035392Y0037980D01*
X0035431Y0037941D01*
X0035472Y0037905D01*
X0035516Y0037872D01*
X0035562Y0037841D01*
X0035610Y0037814D01*
X0035660Y0037791D01*
X0035711Y0037771D01*
X0035764Y0037754D01*
X0035817Y0037741D01*
X0035871Y0037732D01*
X0035926Y0037726D01*
X0035981Y0037724D01*
X0036036Y0037726D01*
X0036091Y0037732D01*
X0036145Y0037741D01*
X0036198Y0037754D01*
X0036251Y0037771D01*
X0036302Y0037791D01*
X0036352Y0037814D01*
X0036400Y0037841D01*
X0036446Y0037872D01*
X0036490Y0037905D01*
X0036531Y0037941D01*
X0036570Y0037980D01*
X0036606Y0038021D01*
X0036639Y0038065D01*
X0036670Y0038111D01*
X0036697Y0038159D01*
X0036720Y0038209D01*
X0036740Y0038260D01*
X0036757Y0038313D01*
X0036770Y0038366D01*
X0036779Y0038420D01*
X0036785Y0038475D01*
X0036787Y0038530D01*
X0033999Y0037725D02*
X0033355Y0037725D01*
X0033677Y0037725D02*
X0033677Y0040625D01*
X0033355Y0040625D02*
X0033999Y0040625D01*
X0035384Y0030231D02*
X0036351Y0027331D01*
X0036109Y0028056D02*
X0034659Y0028056D01*
X0034418Y0027331D02*
X0035384Y0030231D01*
X0037555Y0030231D02*
X0038360Y0030231D01*
X0037555Y0030231D02*
X0037555Y0027331D01*
X0038360Y0027331D01*
X0038415Y0027333D01*
X0038470Y0027339D01*
X0038524Y0027348D01*
X0038577Y0027361D01*
X0038630Y0027378D01*
X0038681Y0027398D01*
X0038731Y0027421D01*
X0038779Y0027448D01*
X0038825Y0027479D01*
X0038869Y0027512D01*
X0038910Y0027548D01*
X0038949Y0027587D01*
X0038985Y0027628D01*
X0039018Y0027672D01*
X0039049Y0027718D01*
X0039076Y0027766D01*
X0039099Y0027816D01*
X0039119Y0027867D01*
X0039136Y0027920D01*
X0039149Y0027973D01*
X0039158Y0028027D01*
X0039164Y0028082D01*
X0039166Y0028137D01*
X0039166Y0029426D01*
X0039164Y0029481D01*
X0039158Y0029536D01*
X0039149Y0029590D01*
X0039136Y0029643D01*
X0039119Y0029696D01*
X0039099Y0029747D01*
X0039076Y0029797D01*
X0039049Y0029845D01*
X0039018Y0029891D01*
X0038985Y0029935D01*
X0038949Y0029976D01*
X0038910Y0030015D01*
X0038869Y0030051D01*
X0038825Y0030084D01*
X0038779Y0030115D01*
X0038731Y0030142D01*
X0038681Y0030165D01*
X0038630Y0030185D01*
X0038577Y0030202D01*
X0038524Y0030215D01*
X0038470Y0030224D01*
X0038415Y0030230D01*
X0038360Y0030232D01*
X0040522Y0029587D02*
X0040522Y0027976D01*
X0040524Y0027928D01*
X0040529Y0027880D01*
X0040538Y0027833D01*
X0040551Y0027786D01*
X0040567Y0027741D01*
X0040586Y0027697D01*
X0040608Y0027654D01*
X0040634Y0027613D01*
X0040663Y0027574D01*
X0040694Y0027538D01*
X0040728Y0027504D01*
X0040764Y0027473D01*
X0040803Y0027444D01*
X0040844Y0027418D01*
X0040887Y0027396D01*
X0040931Y0027377D01*
X0040976Y0027361D01*
X0041023Y0027348D01*
X0041070Y0027339D01*
X0041118Y0027334D01*
X0041166Y0027332D01*
X0041166Y0027331D02*
X0041811Y0027331D01*
X0043047Y0027331D02*
X0043047Y0030231D01*
X0043852Y0030231D01*
X0043852Y0030232D02*
X0043907Y0030230D01*
X0043962Y0030224D01*
X0044016Y0030215D01*
X0044069Y0030202D01*
X0044122Y0030185D01*
X0044173Y0030165D01*
X0044223Y0030142D01*
X0044271Y0030115D01*
X0044317Y0030084D01*
X0044361Y0030051D01*
X0044402Y0030015D01*
X0044441Y0029976D01*
X0044477Y0029935D01*
X0044510Y0029891D01*
X0044541Y0029845D01*
X0044568Y0029797D01*
X0044591Y0029747D01*
X0044611Y0029696D01*
X0044628Y0029643D01*
X0044641Y0029590D01*
X0044650Y0029536D01*
X0044656Y0029481D01*
X0044658Y0029426D01*
X0044656Y0029371D01*
X0044650Y0029316D01*
X0044641Y0029262D01*
X0044628Y0029209D01*
X0044611Y0029156D01*
X0044591Y0029105D01*
X0044568Y0029055D01*
X0044541Y0029007D01*
X0044510Y0028961D01*
X0044477Y0028917D01*
X0044441Y0028876D01*
X0044402Y0028837D01*
X0044361Y0028801D01*
X0044317Y0028768D01*
X0044271Y0028737D01*
X0044223Y0028710D01*
X0044173Y0028687D01*
X0044122Y0028667D01*
X0044069Y0028650D01*
X0044016Y0028637D01*
X0043962Y0028628D01*
X0043907Y0028622D01*
X0043852Y0028620D01*
X0043047Y0028620D01*
X0044014Y0028620D02*
X0044658Y0027331D01*
X0041811Y0030231D02*
X0041166Y0030231D01*
X0041115Y0030229D01*
X0041065Y0030223D01*
X0041016Y0030213D01*
X0040967Y0030199D01*
X0040920Y0030182D01*
X0040874Y0030161D01*
X0040830Y0030136D01*
X0040787Y0030108D01*
X0040748Y0030077D01*
X0040711Y0030042D01*
X0040676Y0030005D01*
X0040645Y0029966D01*
X0040617Y0029923D01*
X0040592Y0029879D01*
X0040571Y0029833D01*
X0040554Y0029786D01*
X0040540Y0029737D01*
X0040530Y0029688D01*
X0040524Y0029638D01*
X0040522Y0029587D01*
X0040731Y0020074D02*
X0040731Y0017979D01*
X0040730Y0017979D02*
X0040732Y0017924D01*
X0040738Y0017869D01*
X0040747Y0017815D01*
X0040760Y0017762D01*
X0040777Y0017709D01*
X0040797Y0017658D01*
X0040820Y0017608D01*
X0040847Y0017560D01*
X0040878Y0017514D01*
X0040911Y0017470D01*
X0040947Y0017429D01*
X0040986Y0017390D01*
X0041027Y0017354D01*
X0041071Y0017321D01*
X0041117Y0017290D01*
X0041165Y0017263D01*
X0041215Y0017240D01*
X0041266Y0017220D01*
X0041319Y0017203D01*
X0041372Y0017190D01*
X0041426Y0017181D01*
X0041481Y0017175D01*
X0041536Y0017173D01*
X0041591Y0017175D01*
X0041646Y0017181D01*
X0041700Y0017190D01*
X0041753Y0017203D01*
X0041806Y0017220D01*
X0041857Y0017240D01*
X0041907Y0017263D01*
X0041955Y0017290D01*
X0042001Y0017321D01*
X0042045Y0017354D01*
X0042086Y0017390D01*
X0042125Y0017429D01*
X0042161Y0017470D01*
X0042194Y0017514D01*
X0042225Y0017560D01*
X0042252Y0017608D01*
X0042275Y0017658D01*
X0042295Y0017709D01*
X0042312Y0017762D01*
X0042325Y0017815D01*
X0042334Y0017869D01*
X0042340Y0017924D01*
X0042342Y0017979D01*
X0042342Y0020074D01*
X0043849Y0020074D02*
X0044655Y0020074D01*
X0044710Y0020072D01*
X0044765Y0020066D01*
X0044819Y0020057D01*
X0044872Y0020044D01*
X0044925Y0020027D01*
X0044976Y0020007D01*
X0045026Y0019984D01*
X0045074Y0019957D01*
X0045120Y0019926D01*
X0045164Y0019893D01*
X0045205Y0019857D01*
X0045244Y0019818D01*
X0045280Y0019777D01*
X0045313Y0019733D01*
X0045344Y0019687D01*
X0045371Y0019639D01*
X0045394Y0019589D01*
X0045414Y0019538D01*
X0045431Y0019485D01*
X0045444Y0019432D01*
X0045453Y0019378D01*
X0045459Y0019323D01*
X0045461Y0019268D01*
X0045459Y0019213D01*
X0045453Y0019158D01*
X0045444Y0019104D01*
X0045431Y0019051D01*
X0045414Y0018998D01*
X0045394Y0018947D01*
X0045371Y0018897D01*
X0045344Y0018849D01*
X0045313Y0018803D01*
X0045280Y0018759D01*
X0045244Y0018718D01*
X0045205Y0018679D01*
X0045164Y0018643D01*
X0045120Y0018610D01*
X0045074Y0018579D01*
X0045026Y0018552D01*
X0044976Y0018529D01*
X0044925Y0018509D01*
X0044872Y0018492D01*
X0044819Y0018479D01*
X0044765Y0018470D01*
X0044710Y0018464D01*
X0044655Y0018462D01*
X0044655Y0018463D02*
X0043849Y0018463D01*
X0043849Y0017174D02*
X0043849Y0020074D01*
X0039140Y0018382D02*
X0038254Y0018865D01*
X0038576Y0020073D02*
X0038641Y0020071D01*
X0038705Y0020066D01*
X0038770Y0020057D01*
X0038833Y0020045D01*
X0038896Y0020030D01*
X0038958Y0020011D01*
X0039019Y0019989D01*
X0039078Y0019964D01*
X0039137Y0019935D01*
X0039193Y0019903D01*
X0039248Y0019869D01*
X0039301Y0019831D01*
X0038253Y0018865D02*
X0038213Y0018891D01*
X0038174Y0018920D01*
X0038137Y0018952D01*
X0038103Y0018987D01*
X0038072Y0019024D01*
X0038043Y0019063D01*
X0038017Y0019104D01*
X0037995Y0019147D01*
X0037976Y0019192D01*
X0037960Y0019238D01*
X0037947Y0019284D01*
X0037938Y0019332D01*
X0037933Y0019380D01*
X0037931Y0019429D01*
X0037932Y0019429D02*
X0037934Y0019477D01*
X0037939Y0019525D01*
X0037948Y0019572D01*
X0037961Y0019619D01*
X0037977Y0019664D01*
X0037996Y0019708D01*
X0038018Y0019751D01*
X0038044Y0019792D01*
X0038073Y0019831D01*
X0038104Y0019867D01*
X0038138Y0019901D01*
X0038174Y0019933D01*
X0038213Y0019961D01*
X0038254Y0019987D01*
X0038297Y0020009D01*
X0038341Y0020028D01*
X0038386Y0020044D01*
X0038433Y0020057D01*
X0038480Y0020066D01*
X0038528Y0020071D01*
X0038576Y0020073D01*
X0037852Y0017577D02*
X0037903Y0017527D01*
X0037958Y0017480D01*
X0038014Y0017437D01*
X0038073Y0017396D01*
X0038134Y0017358D01*
X0038197Y0017324D01*
X0038262Y0017293D01*
X0038328Y0017265D01*
X0038395Y0017241D01*
X0038464Y0017221D01*
X0038534Y0017204D01*
X0038604Y0017191D01*
X0038675Y0017182D01*
X0038746Y0017176D01*
X0038818Y0017174D01*
X0038866Y0017176D01*
X0038914Y0017181D01*
X0038961Y0017190D01*
X0039008Y0017203D01*
X0039053Y0017219D01*
X0039097Y0017238D01*
X0039140Y0017260D01*
X0039181Y0017286D01*
X0039220Y0017315D01*
X0039256Y0017346D01*
X0039290Y0017380D01*
X0039321Y0017416D01*
X0039350Y0017455D01*
X0039376Y0017496D01*
X0039398Y0017539D01*
X0039417Y0017583D01*
X0039433Y0017628D01*
X0039446Y0017675D01*
X0039455Y0017722D01*
X0039460Y0017770D01*
X0039462Y0017818D01*
X0039460Y0017867D01*
X0039455Y0017915D01*
X0039446Y0017963D01*
X0039433Y0018009D01*
X0039417Y0018055D01*
X0039398Y0018100D01*
X0039376Y0018143D01*
X0039350Y0018184D01*
X0039321Y0018223D01*
X0039290Y0018260D01*
X0039256Y0018295D01*
X0039219Y0018327D01*
X0039180Y0018356D01*
X0039140Y0018382D01*
X0036698Y0017174D02*
X0036054Y0018463D01*
X0035893Y0018463D02*
X0035087Y0018463D01*
X0035893Y0018462D02*
X0035948Y0018464D01*
X0036003Y0018470D01*
X0036057Y0018479D01*
X0036110Y0018492D01*
X0036163Y0018509D01*
X0036214Y0018529D01*
X0036264Y0018552D01*
X0036312Y0018579D01*
X0036358Y0018610D01*
X0036402Y0018643D01*
X0036443Y0018679D01*
X0036482Y0018718D01*
X0036518Y0018759D01*
X0036551Y0018803D01*
X0036582Y0018849D01*
X0036609Y0018897D01*
X0036632Y0018947D01*
X0036652Y0018998D01*
X0036669Y0019051D01*
X0036682Y0019104D01*
X0036691Y0019158D01*
X0036697Y0019213D01*
X0036699Y0019268D01*
X0036697Y0019323D01*
X0036691Y0019378D01*
X0036682Y0019432D01*
X0036669Y0019485D01*
X0036652Y0019538D01*
X0036632Y0019589D01*
X0036609Y0019639D01*
X0036582Y0019687D01*
X0036551Y0019733D01*
X0036518Y0019777D01*
X0036482Y0019818D01*
X0036443Y0019857D01*
X0036402Y0019893D01*
X0036358Y0019926D01*
X0036312Y0019957D01*
X0036264Y0019984D01*
X0036214Y0020007D01*
X0036163Y0020027D01*
X0036110Y0020044D01*
X0036057Y0020057D01*
X0036003Y0020066D01*
X0035948Y0020072D01*
X0035893Y0020074D01*
X0035087Y0020074D01*
X0035087Y0017174D01*
X0037779Y0010625D02*
X0038423Y0010625D01*
X0037779Y0010624D02*
X0037728Y0010622D01*
X0037678Y0010616D01*
X0037629Y0010606D01*
X0037580Y0010592D01*
X0037533Y0010575D01*
X0037487Y0010554D01*
X0037443Y0010529D01*
X0037400Y0010501D01*
X0037361Y0010470D01*
X0037324Y0010435D01*
X0037289Y0010398D01*
X0037258Y0010359D01*
X0037230Y0010316D01*
X0037205Y0010272D01*
X0037184Y0010226D01*
X0037167Y0010179D01*
X0037153Y0010130D01*
X0037143Y0010081D01*
X0037137Y0010031D01*
X0037135Y0009980D01*
X0037134Y0009980D02*
X0037134Y0008369D01*
X0037135Y0008369D02*
X0037137Y0008321D01*
X0037142Y0008273D01*
X0037151Y0008226D01*
X0037164Y0008179D01*
X0037180Y0008134D01*
X0037199Y0008090D01*
X0037221Y0008047D01*
X0037247Y0008006D01*
X0037276Y0007967D01*
X0037307Y0007931D01*
X0037341Y0007897D01*
X0037377Y0007866D01*
X0037416Y0007837D01*
X0037457Y0007811D01*
X0037500Y0007789D01*
X0037544Y0007770D01*
X0037589Y0007754D01*
X0037636Y0007741D01*
X0037683Y0007732D01*
X0037731Y0007727D01*
X0037779Y0007725D01*
X0038423Y0007725D01*
X0039646Y0007725D02*
X0040934Y0007725D01*
X0042182Y0007725D02*
X0042182Y0010625D01*
X0042826Y0009497D02*
X0043793Y0007725D01*
X0042182Y0008853D02*
X0043793Y0010625D01*
X0039646Y0010625D02*
X0039646Y0007725D01*
D12*
X0046433Y0006335D02*
X0048933Y0003835D01*
X0053933Y0003835D01*
X0056433Y0006335D01*
X0056433Y0011335D01*
X0053933Y0013835D01*
X0056433Y0016335D01*
X0056433Y0021335D01*
X0053933Y0023835D01*
X0056433Y0026335D01*
X0056433Y0031335D01*
X0053933Y0033835D01*
X0056433Y0036335D01*
X0056433Y0041335D01*
X0053933Y0043835D01*
X0056433Y0046335D01*
X0056433Y0051335D01*
X0053933Y0053835D01*
X0056433Y0056335D01*
X0056433Y0061335D01*
X0053933Y0063835D01*
X0056433Y0066335D01*
X0056433Y0071335D01*
X0053933Y0073835D01*
X0056433Y0076335D01*
X0056433Y0081335D01*
X0053933Y0083835D01*
X0048933Y0083835D01*
X0046433Y0081335D01*
X0046433Y0076335D01*
X0048933Y0073835D01*
X0046433Y0071335D01*
X0046433Y0066335D01*
X0048933Y0063835D01*
X0046433Y0061335D01*
X0046433Y0056335D01*
X0048933Y0053835D01*
X0046433Y0051335D01*
X0046433Y0046335D01*
X0048933Y0043835D01*
X0046433Y0041335D01*
X0046433Y0036335D01*
X0048933Y0033835D01*
X0046433Y0031335D01*
X0046433Y0026335D01*
X0048933Y0023835D01*
X0046433Y0021335D01*
X0046433Y0016335D01*
X0048933Y0013835D01*
X0046433Y0011335D01*
X0046433Y0006335D01*
X0015213Y0006335D02*
X0015213Y0011335D01*
X0012713Y0013835D01*
X0015213Y0016335D01*
X0015213Y0021335D01*
X0012713Y0023835D01*
X0015213Y0026335D01*
X0015213Y0031335D01*
X0012713Y0033835D01*
X0015213Y0036335D01*
X0015213Y0041335D01*
X0012713Y0043835D01*
X0015213Y0046335D01*
X0015213Y0051335D01*
X0012713Y0053835D01*
X0015213Y0056335D01*
X0015213Y0061335D01*
X0012713Y0063835D01*
X0015213Y0066335D01*
X0015213Y0071335D01*
X0012713Y0073835D01*
X0015213Y0076335D01*
X0015213Y0081335D01*
X0012713Y0083835D01*
X0007713Y0083835D01*
X0005213Y0081335D01*
X0005213Y0076335D01*
X0007713Y0073835D01*
X0005213Y0071335D01*
X0005213Y0066335D01*
X0007713Y0063835D01*
X0005213Y0061335D01*
X0005213Y0056335D01*
X0007713Y0053835D01*
X0005213Y0051335D01*
X0005213Y0046335D01*
X0007713Y0043835D01*
X0005213Y0041335D01*
X0005213Y0036335D01*
X0007713Y0033835D01*
X0005213Y0031335D01*
X0005213Y0026335D01*
X0007713Y0023835D01*
X0005213Y0021335D01*
X0005213Y0016335D01*
X0007713Y0013835D01*
X0005213Y0011335D01*
X0005213Y0006335D01*
X0007713Y0003835D01*
X0012713Y0003835D01*
X0015213Y0006335D01*
D13*
X0025350Y0040835D02*
X0025352Y0040874D01*
X0025358Y0040913D01*
X0025368Y0040951D01*
X0025381Y0040988D01*
X0025398Y0041023D01*
X0025418Y0041057D01*
X0025442Y0041088D01*
X0025469Y0041117D01*
X0025498Y0041143D01*
X0025530Y0041166D01*
X0025564Y0041186D01*
X0025600Y0041202D01*
X0025637Y0041214D01*
X0025676Y0041223D01*
X0025715Y0041228D01*
X0025754Y0041229D01*
X0025793Y0041226D01*
X0025832Y0041219D01*
X0025869Y0041208D01*
X0025906Y0041194D01*
X0025941Y0041176D01*
X0025974Y0041155D01*
X0026005Y0041130D01*
X0026033Y0041103D01*
X0026058Y0041073D01*
X0026080Y0041040D01*
X0026099Y0041006D01*
X0026114Y0040970D01*
X0026126Y0040932D01*
X0026134Y0040894D01*
X0026138Y0040855D01*
X0026138Y0040815D01*
X0026134Y0040776D01*
X0026126Y0040738D01*
X0026114Y0040700D01*
X0026099Y0040664D01*
X0026080Y0040630D01*
X0026058Y0040597D01*
X0026033Y0040567D01*
X0026005Y0040540D01*
X0025974Y0040515D01*
X0025941Y0040494D01*
X0025906Y0040476D01*
X0025869Y0040462D01*
X0025832Y0040451D01*
X0025793Y0040444D01*
X0025754Y0040441D01*
X0025715Y0040442D01*
X0025676Y0040447D01*
X0025637Y0040456D01*
X0025600Y0040468D01*
X0025564Y0040484D01*
X0025530Y0040504D01*
X0025498Y0040527D01*
X0025469Y0040553D01*
X0025442Y0040582D01*
X0025418Y0040613D01*
X0025398Y0040647D01*
X0025381Y0040682D01*
X0025368Y0040719D01*
X0025358Y0040757D01*
X0025352Y0040796D01*
X0025350Y0040835D01*
M02*
