%
M48
M72
T01C0.00787
T02C0.01378
T03C0.04000
%
T01
X29181Y42803
X29181Y44772
X29181Y46740
T02
X29189Y56906
X34425Y35882
X32496Y20252
T03
X10213Y8835
X10213Y18835
X10213Y28835
X10213Y38835
X10213Y48835
X10213Y58835
X10213Y68835
X10213Y78835
X51433Y78835
X51433Y68835
X51433Y58835
X51433Y48835
X51433Y38835
X51433Y28835
X51433Y18835
X51433Y8835
M30
