G75*
%MOIN*%
%OFA0B0*%
%FSLAX25Y25*%
%IPPOS*%
%LPD*%
%AMOC8*
5,1,8,0,0,1.08239X$1,22.5*
%
%ADD10C,0.07400*%
%ADD11R,0.01181X0.01181*%
%ADD12C,0.00600*%
%ADD13C,0.02978*%
D10*
X0010213Y0008835D03*
X0010213Y0018835D03*
X0010213Y0028835D03*
X0010213Y0038835D03*
X0010213Y0048835D03*
X0010213Y0058835D03*
X0010213Y0068835D03*
X0010213Y0078835D03*
X0051433Y0078835D03*
X0051433Y0068835D03*
X0051433Y0058835D03*
X0051433Y0048835D03*
X0051433Y0038835D03*
X0051433Y0028835D03*
X0051433Y0018835D03*
X0051433Y0008835D03*
D11*
X0029181Y0042803D03*
X0029181Y0044772D03*
X0029181Y0046740D03*
D12*
X0005300Y0077889D02*
X0005300Y0005300D01*
X0007534Y0005300D01*
X0006488Y0006346D01*
X0005819Y0007961D01*
X0005819Y0009709D01*
X0006488Y0011323D01*
X0007724Y0012559D01*
X0009339Y0013228D01*
X0011087Y0013228D01*
X0012701Y0012559D01*
X0013937Y0011323D01*
X0014606Y0009709D01*
X0014606Y0007961D01*
X0013937Y0006346D01*
X0012892Y0005300D01*
X0048754Y0005300D01*
X0047708Y0006346D01*
X0047039Y0007961D01*
X0047039Y0009709D01*
X0047708Y0011323D01*
X0048944Y0012559D01*
X0050559Y0013228D01*
X0052307Y0013228D01*
X0053922Y0012559D01*
X0055158Y0011323D01*
X0055827Y0009709D01*
X0055827Y0007961D01*
X0055158Y0006346D01*
X0054112Y0005300D01*
X0056621Y0005300D01*
X0056621Y0083235D01*
X0012589Y0083235D01*
X0012833Y0083111D01*
X0013470Y0082648D01*
X0014026Y0082092D01*
X0014489Y0081455D01*
X0014846Y0080754D01*
X0015089Y0080005D01*
X0015213Y0079228D01*
X0015213Y0079135D01*
X0010513Y0079135D01*
X0010513Y0078535D01*
X0015213Y0078535D01*
X0015213Y0078441D01*
X0015089Y0077664D01*
X0014846Y0076915D01*
X0014489Y0076214D01*
X0014026Y0075577D01*
X0013470Y0075021D01*
X0012833Y0074558D01*
X0012132Y0074201D01*
X0011383Y0073958D01*
X0010606Y0073835D01*
X0010513Y0073835D01*
X0010513Y0078535D01*
X0009913Y0078535D01*
X0009913Y0073835D01*
X0009819Y0073835D01*
X0009042Y0073958D01*
X0008293Y0074201D01*
X0007592Y0074558D01*
X0006955Y0075021D01*
X0006399Y0075577D01*
X0005936Y0076214D01*
X0005579Y0076915D01*
X0005336Y0077664D01*
X0005300Y0077889D01*
X0005300Y0077609D02*
X0005353Y0077609D01*
X0005300Y0077011D02*
X0005548Y0077011D01*
X0005300Y0076412D02*
X0005835Y0076412D01*
X0006227Y0075814D02*
X0005300Y0075814D01*
X0005300Y0075215D02*
X0006761Y0075215D01*
X0007511Y0074617D02*
X0005300Y0074617D01*
X0005300Y0074018D02*
X0008855Y0074018D01*
X0009339Y0073228D02*
X0007724Y0072559D01*
X0006488Y0071323D01*
X0005819Y0069709D01*
X0005819Y0067961D01*
X0006488Y0066346D01*
X0007724Y0065110D01*
X0009339Y0064441D01*
X0011087Y0064441D01*
X0012701Y0065110D01*
X0013937Y0066346D01*
X0014606Y0067961D01*
X0014606Y0069709D01*
X0013937Y0071323D01*
X0012701Y0072559D01*
X0011087Y0073228D01*
X0009339Y0073228D01*
X0009913Y0074018D02*
X0010513Y0074018D01*
X0010513Y0074617D02*
X0009913Y0074617D01*
X0009913Y0075215D02*
X0010513Y0075215D01*
X0010513Y0075814D02*
X0009913Y0075814D01*
X0009913Y0076412D02*
X0010513Y0076412D01*
X0010513Y0077011D02*
X0009913Y0077011D01*
X0009913Y0077609D02*
X0010513Y0077609D01*
X0010513Y0078208D02*
X0009913Y0078208D01*
X0010513Y0078806D02*
X0047039Y0078806D01*
X0047039Y0078208D02*
X0015176Y0078208D01*
X0015072Y0077609D02*
X0047185Y0077609D01*
X0047039Y0077961D02*
X0047708Y0076346D01*
X0048944Y0075110D01*
X0050559Y0074441D01*
X0052307Y0074441D01*
X0053922Y0075110D01*
X0055158Y0076346D01*
X0055827Y0077961D01*
X0055827Y0079709D01*
X0055158Y0081323D01*
X0053922Y0082559D01*
X0052307Y0083228D01*
X0050559Y0083228D01*
X0048944Y0082559D01*
X0047708Y0081323D01*
X0047039Y0079709D01*
X0047039Y0077961D01*
X0047039Y0079405D02*
X0015185Y0079405D01*
X0015090Y0080003D02*
X0047162Y0080003D01*
X0047409Y0080602D02*
X0014896Y0080602D01*
X0014619Y0081201D02*
X0047657Y0081201D01*
X0048184Y0081799D02*
X0014239Y0081799D01*
X0013721Y0082398D02*
X0048782Y0082398D01*
X0049998Y0082996D02*
X0012991Y0082996D01*
X0014877Y0077011D02*
X0047433Y0077011D01*
X0047681Y0076412D02*
X0014590Y0076412D01*
X0014198Y0075814D02*
X0048240Y0075814D01*
X0048839Y0075215D02*
X0013664Y0075215D01*
X0012914Y0074617D02*
X0050134Y0074617D01*
X0050262Y0073712D02*
X0049514Y0073468D01*
X0048812Y0073111D01*
X0048176Y0072648D01*
X0047619Y0072092D01*
X0047157Y0071455D01*
X0046799Y0070754D01*
X0046556Y0070005D01*
X0046433Y0069228D01*
X0046433Y0069135D01*
X0051133Y0069135D01*
X0051133Y0073835D01*
X0051040Y0073835D01*
X0050262Y0073712D01*
X0051133Y0073420D02*
X0051733Y0073420D01*
X0051733Y0073835D02*
X0051827Y0073835D01*
X0052604Y0073712D01*
X0053352Y0073468D01*
X0054054Y0073111D01*
X0054690Y0072648D01*
X0055247Y0072092D01*
X0055709Y0071455D01*
X0056067Y0070754D01*
X0056310Y0070005D01*
X0056433Y0069228D01*
X0056433Y0069135D01*
X0051733Y0069135D01*
X0051133Y0069135D01*
X0051133Y0068535D01*
X0046433Y0068535D01*
X0046433Y0068441D01*
X0046556Y0067664D01*
X0046799Y0066915D01*
X0047157Y0066214D01*
X0047619Y0065577D01*
X0048176Y0065021D01*
X0048812Y0064558D01*
X0049514Y0064201D01*
X0050262Y0063958D01*
X0051040Y0063835D01*
X0051133Y0063835D01*
X0051133Y0068535D01*
X0051733Y0068535D01*
X0051733Y0069135D01*
X0051733Y0073835D01*
X0051733Y0072821D02*
X0051133Y0072821D01*
X0051133Y0072223D02*
X0051733Y0072223D01*
X0051733Y0071624D02*
X0051133Y0071624D01*
X0051133Y0071026D02*
X0051733Y0071026D01*
X0051733Y0070427D02*
X0051133Y0070427D01*
X0051133Y0069829D02*
X0051733Y0069829D01*
X0051733Y0069230D02*
X0051133Y0069230D01*
X0051133Y0068632D02*
X0014606Y0068632D01*
X0014606Y0069230D02*
X0046433Y0069230D01*
X0046528Y0069829D02*
X0014557Y0069829D01*
X0014309Y0070427D02*
X0046693Y0070427D01*
X0046938Y0071026D02*
X0014061Y0071026D01*
X0013637Y0071624D02*
X0047280Y0071624D01*
X0047750Y0072223D02*
X0013038Y0072223D01*
X0012069Y0072821D02*
X0048414Y0072821D01*
X0049419Y0073420D02*
X0005300Y0073420D01*
X0005300Y0072821D02*
X0008356Y0072821D01*
X0007387Y0072223D02*
X0005300Y0072223D01*
X0005300Y0071624D02*
X0006789Y0071624D01*
X0006365Y0071026D02*
X0005300Y0071026D01*
X0005300Y0070427D02*
X0006117Y0070427D01*
X0005869Y0069829D02*
X0005300Y0069829D01*
X0005300Y0069230D02*
X0005819Y0069230D01*
X0005819Y0068632D02*
X0005300Y0068632D01*
X0005300Y0068033D02*
X0005819Y0068033D01*
X0006037Y0067435D02*
X0005300Y0067435D01*
X0005300Y0066836D02*
X0006285Y0066836D01*
X0006596Y0066238D02*
X0005300Y0066238D01*
X0005300Y0065639D02*
X0007194Y0065639D01*
X0007891Y0065041D02*
X0005300Y0065041D01*
X0005300Y0064442D02*
X0009336Y0064442D01*
X0009339Y0063228D02*
X0007724Y0062559D01*
X0006488Y0061323D01*
X0005819Y0059709D01*
X0005819Y0057961D01*
X0006488Y0056346D01*
X0007724Y0055110D01*
X0009339Y0054441D01*
X0011087Y0054441D01*
X0012701Y0055110D01*
X0013937Y0056346D01*
X0014606Y0057961D01*
X0014606Y0059709D01*
X0013937Y0061323D01*
X0012701Y0062559D01*
X0011087Y0063228D01*
X0009339Y0063228D01*
X0011090Y0064442D02*
X0049040Y0064442D01*
X0048156Y0065041D02*
X0012535Y0065041D01*
X0013231Y0065639D02*
X0047574Y0065639D01*
X0047145Y0066238D02*
X0013829Y0066238D01*
X0014141Y0066836D02*
X0046840Y0066836D01*
X0046631Y0067435D02*
X0014388Y0067435D01*
X0014606Y0068033D02*
X0046498Y0068033D01*
X0048944Y0062559D02*
X0047708Y0061323D01*
X0047039Y0059709D01*
X0047039Y0057961D01*
X0047708Y0056346D01*
X0048944Y0055110D01*
X0050559Y0054441D01*
X0052307Y0054441D01*
X0053922Y0055110D01*
X0055158Y0056346D01*
X0055827Y0057961D01*
X0055827Y0059709D01*
X0055158Y0061323D01*
X0053922Y0062559D01*
X0052307Y0063228D01*
X0050559Y0063228D01*
X0048944Y0062559D01*
X0049155Y0062647D02*
X0012491Y0062647D01*
X0013213Y0062048D02*
X0048433Y0062048D01*
X0047834Y0061450D02*
X0013811Y0061450D01*
X0014133Y0060851D02*
X0047513Y0060851D01*
X0047265Y0060253D02*
X0014381Y0060253D01*
X0014606Y0059654D02*
X0047039Y0059654D01*
X0047039Y0059056D02*
X0030417Y0059056D01*
X0030179Y0059294D02*
X0031578Y0057895D01*
X0031578Y0055916D01*
X0030179Y0054517D01*
X0030175Y0054517D01*
X0030175Y0047909D01*
X0030465Y0047618D01*
X0030465Y0045862D01*
X0030359Y0045756D01*
X0030465Y0045650D01*
X0030465Y0043894D01*
X0030359Y0043787D01*
X0030465Y0043681D01*
X0030465Y0041925D01*
X0030175Y0041635D01*
X0030175Y0041538D01*
X0033442Y0038271D01*
X0035415Y0038271D01*
X0036814Y0036871D01*
X0036814Y0034892D01*
X0035415Y0033493D01*
X0033436Y0033493D01*
X0032036Y0034892D01*
X0032036Y0036866D01*
X0028187Y0040714D01*
X0028187Y0041635D01*
X0027897Y0041925D01*
X0027897Y0043657D01*
X0027191Y0042951D01*
X0027191Y0026963D01*
X0027632Y0026521D01*
X0027632Y0026521D01*
X0028144Y0026009D01*
X0031512Y0022641D01*
X0033486Y0022641D01*
X0034885Y0021242D01*
X0034885Y0019262D01*
X0033486Y0017863D01*
X0031507Y0017863D01*
X0030107Y0019262D01*
X0030107Y0021236D01*
X0026739Y0024604D01*
X0026227Y0025116D01*
X0026227Y0025116D01*
X0025203Y0026140D01*
X0025203Y0043774D01*
X0025785Y0044356D01*
X0025785Y0044356D01*
X0027195Y0045765D01*
X0027994Y0045765D01*
X0027897Y0045862D01*
X0027897Y0047618D01*
X0028187Y0047909D01*
X0028187Y0054529D01*
X0026800Y0055916D01*
X0026800Y0057895D01*
X0028199Y0059294D01*
X0030179Y0059294D01*
X0031016Y0058457D02*
X0047039Y0058457D01*
X0047082Y0057859D02*
X0031578Y0057859D01*
X0031578Y0057260D02*
X0047330Y0057260D01*
X0047577Y0056662D02*
X0031578Y0056662D01*
X0031578Y0056063D02*
X0047991Y0056063D01*
X0048590Y0055465D02*
X0031127Y0055465D01*
X0030528Y0054866D02*
X0049533Y0054866D01*
X0050178Y0053070D02*
X0030175Y0053070D01*
X0030175Y0052472D02*
X0048857Y0052472D01*
X0048944Y0052559D02*
X0047708Y0051323D01*
X0047039Y0049709D01*
X0047039Y0047961D01*
X0047708Y0046346D01*
X0048944Y0045110D01*
X0050559Y0044441D01*
X0052307Y0044441D01*
X0053922Y0045110D01*
X0055158Y0046346D01*
X0055827Y0047961D01*
X0055827Y0049709D01*
X0055158Y0051323D01*
X0053922Y0052559D01*
X0052307Y0053228D01*
X0050559Y0053228D01*
X0048944Y0052559D01*
X0048258Y0051873D02*
X0030175Y0051873D01*
X0030175Y0051275D02*
X0047688Y0051275D01*
X0047440Y0050676D02*
X0030175Y0050676D01*
X0030175Y0050078D02*
X0047192Y0050078D01*
X0047039Y0049479D02*
X0030175Y0049479D01*
X0030175Y0048881D02*
X0047039Y0048881D01*
X0047039Y0048282D02*
X0030175Y0048282D01*
X0030400Y0047684D02*
X0047154Y0047684D01*
X0047402Y0047085D02*
X0030465Y0047085D01*
X0030465Y0046487D02*
X0047650Y0046487D01*
X0048166Y0045888D02*
X0030465Y0045888D01*
X0030465Y0045290D02*
X0048764Y0045290D01*
X0049955Y0044691D02*
X0030465Y0044691D01*
X0030465Y0044093D02*
X0056621Y0044093D01*
X0056621Y0044691D02*
X0052912Y0044691D01*
X0054102Y0045290D02*
X0056621Y0045290D01*
X0056621Y0045888D02*
X0054700Y0045888D01*
X0055216Y0046487D02*
X0056621Y0046487D01*
X0056621Y0047085D02*
X0055464Y0047085D01*
X0055712Y0047684D02*
X0056621Y0047684D01*
X0056621Y0048282D02*
X0055827Y0048282D01*
X0055827Y0048881D02*
X0056621Y0048881D01*
X0056621Y0049479D02*
X0055827Y0049479D01*
X0055674Y0050078D02*
X0056621Y0050078D01*
X0056621Y0050676D02*
X0055426Y0050676D01*
X0055178Y0051275D02*
X0056621Y0051275D01*
X0056621Y0051873D02*
X0054608Y0051873D01*
X0054009Y0052472D02*
X0056621Y0052472D01*
X0056621Y0053070D02*
X0052688Y0053070D01*
X0053333Y0054866D02*
X0056621Y0054866D01*
X0056621Y0054268D02*
X0030175Y0054268D01*
X0030175Y0053669D02*
X0056621Y0053669D01*
X0056621Y0055465D02*
X0054277Y0055465D01*
X0054875Y0056063D02*
X0056621Y0056063D01*
X0056621Y0056662D02*
X0055289Y0056662D01*
X0055537Y0057260D02*
X0056621Y0057260D01*
X0056621Y0057859D02*
X0055784Y0057859D01*
X0055827Y0058457D02*
X0056621Y0058457D01*
X0056621Y0059056D02*
X0055827Y0059056D01*
X0055827Y0059654D02*
X0056621Y0059654D01*
X0056621Y0060253D02*
X0055601Y0060253D01*
X0055354Y0060851D02*
X0056621Y0060851D01*
X0056621Y0061450D02*
X0055032Y0061450D01*
X0054433Y0062048D02*
X0056621Y0062048D01*
X0056621Y0062647D02*
X0053711Y0062647D01*
X0053352Y0064201D02*
X0052604Y0063958D01*
X0051827Y0063835D01*
X0051733Y0063835D01*
X0051733Y0068535D01*
X0056433Y0068535D01*
X0056433Y0068441D01*
X0056310Y0067664D01*
X0056067Y0066915D01*
X0055709Y0066214D01*
X0055247Y0065577D01*
X0054690Y0065021D01*
X0054054Y0064558D01*
X0053352Y0064201D01*
X0053826Y0064442D02*
X0056621Y0064442D01*
X0056621Y0063844D02*
X0051884Y0063844D01*
X0051733Y0063844D02*
X0051133Y0063844D01*
X0050982Y0063844D02*
X0005300Y0063844D01*
X0005300Y0063245D02*
X0056621Y0063245D01*
X0056621Y0065041D02*
X0054710Y0065041D01*
X0055292Y0065639D02*
X0056621Y0065639D01*
X0056621Y0066238D02*
X0055722Y0066238D01*
X0056026Y0066836D02*
X0056621Y0066836D01*
X0056621Y0067435D02*
X0056236Y0067435D01*
X0056368Y0068033D02*
X0056621Y0068033D01*
X0056621Y0068632D02*
X0051733Y0068632D01*
X0051733Y0068033D02*
X0051133Y0068033D01*
X0051133Y0067435D02*
X0051733Y0067435D01*
X0051733Y0066836D02*
X0051133Y0066836D01*
X0051133Y0066238D02*
X0051733Y0066238D01*
X0051733Y0065639D02*
X0051133Y0065639D01*
X0051133Y0065041D02*
X0051733Y0065041D01*
X0051733Y0064442D02*
X0051133Y0064442D01*
X0056338Y0069829D02*
X0056621Y0069829D01*
X0056621Y0070427D02*
X0056173Y0070427D01*
X0055928Y0071026D02*
X0056621Y0071026D01*
X0056621Y0071624D02*
X0055587Y0071624D01*
X0055116Y0072223D02*
X0056621Y0072223D01*
X0056621Y0072821D02*
X0054452Y0072821D01*
X0053447Y0073420D02*
X0056621Y0073420D01*
X0056621Y0074018D02*
X0011570Y0074018D01*
X0007934Y0062647D02*
X0005300Y0062647D01*
X0005300Y0062048D02*
X0007212Y0062048D01*
X0006614Y0061450D02*
X0005300Y0061450D01*
X0005300Y0060851D02*
X0006292Y0060851D01*
X0006044Y0060253D02*
X0005300Y0060253D01*
X0005300Y0059654D02*
X0005819Y0059654D01*
X0005819Y0059056D02*
X0005300Y0059056D01*
X0005300Y0058457D02*
X0005819Y0058457D01*
X0005861Y0057859D02*
X0005300Y0057859D01*
X0005300Y0057260D02*
X0006109Y0057260D01*
X0006357Y0056662D02*
X0005300Y0056662D01*
X0005300Y0056063D02*
X0006771Y0056063D01*
X0007369Y0055465D02*
X0005300Y0055465D01*
X0005300Y0054866D02*
X0008312Y0054866D01*
X0008958Y0053070D02*
X0005300Y0053070D01*
X0005300Y0052472D02*
X0007636Y0052472D01*
X0007724Y0052559D02*
X0006488Y0051323D01*
X0005819Y0049709D01*
X0005819Y0047961D01*
X0006488Y0046346D01*
X0007724Y0045110D01*
X0009339Y0044441D01*
X0011087Y0044441D01*
X0012701Y0045110D01*
X0013937Y0046346D01*
X0014606Y0047961D01*
X0014606Y0049709D01*
X0013937Y0051323D01*
X0012701Y0052559D01*
X0011087Y0053228D01*
X0009339Y0053228D01*
X0007724Y0052559D01*
X0007038Y0051873D02*
X0005300Y0051873D01*
X0005300Y0051275D02*
X0006468Y0051275D01*
X0006220Y0050676D02*
X0005300Y0050676D01*
X0005300Y0050078D02*
X0005972Y0050078D01*
X0005819Y0049479D02*
X0005300Y0049479D01*
X0005300Y0048881D02*
X0005819Y0048881D01*
X0005819Y0048282D02*
X0005300Y0048282D01*
X0005300Y0047684D02*
X0005934Y0047684D01*
X0006181Y0047085D02*
X0005300Y0047085D01*
X0005300Y0046487D02*
X0006429Y0046487D01*
X0006945Y0045888D02*
X0005300Y0045888D01*
X0005300Y0045290D02*
X0007544Y0045290D01*
X0008734Y0044691D02*
X0005300Y0044691D01*
X0005300Y0044093D02*
X0025522Y0044093D01*
X0025203Y0043494D02*
X0005300Y0043494D01*
X0005300Y0042896D02*
X0008536Y0042896D01*
X0009339Y0043228D02*
X0007724Y0042559D01*
X0006488Y0041323D01*
X0005819Y0039709D01*
X0005819Y0037961D01*
X0006488Y0036346D01*
X0007724Y0035110D01*
X0009339Y0034441D01*
X0011087Y0034441D01*
X0012701Y0035110D01*
X0013937Y0036346D01*
X0014606Y0037961D01*
X0014606Y0039709D01*
X0013937Y0041323D01*
X0012701Y0042559D01*
X0011087Y0043228D01*
X0009339Y0043228D01*
X0007462Y0042297D02*
X0005300Y0042297D01*
X0005300Y0041699D02*
X0006863Y0041699D01*
X0006395Y0041100D02*
X0005300Y0041100D01*
X0005300Y0040502D02*
X0006147Y0040502D01*
X0005900Y0039903D02*
X0005300Y0039903D01*
X0005300Y0039305D02*
X0005819Y0039305D01*
X0005819Y0038706D02*
X0005300Y0038706D01*
X0005300Y0038108D02*
X0005819Y0038108D01*
X0006006Y0037509D02*
X0005300Y0037509D01*
X0005300Y0036911D02*
X0006254Y0036911D01*
X0006521Y0036312D02*
X0005300Y0036312D01*
X0005300Y0035714D02*
X0007120Y0035714D01*
X0007718Y0035115D02*
X0005300Y0035115D01*
X0005300Y0034517D02*
X0009156Y0034517D01*
X0009339Y0033228D02*
X0007724Y0032559D01*
X0006488Y0031323D01*
X0005819Y0029709D01*
X0005819Y0027961D01*
X0006488Y0026346D01*
X0007724Y0025110D01*
X0009339Y0024441D01*
X0011087Y0024441D01*
X0012701Y0025110D01*
X0013937Y0026346D01*
X0014606Y0027961D01*
X0014606Y0029709D01*
X0013937Y0031323D01*
X0012701Y0032559D01*
X0011087Y0033228D01*
X0009339Y0033228D01*
X0008114Y0032721D02*
X0005300Y0032721D01*
X0005300Y0032123D02*
X0007287Y0032123D01*
X0006688Y0031524D02*
X0005300Y0031524D01*
X0005300Y0030926D02*
X0006323Y0030926D01*
X0006075Y0030327D02*
X0005300Y0030327D01*
X0005300Y0029729D02*
X0005827Y0029729D01*
X0005819Y0029130D02*
X0005300Y0029130D01*
X0005300Y0028532D02*
X0005819Y0028532D01*
X0005830Y0027933D02*
X0005300Y0027933D01*
X0005300Y0027334D02*
X0006078Y0027334D01*
X0006326Y0026736D02*
X0005300Y0026736D01*
X0005300Y0026137D02*
X0006696Y0026137D01*
X0007295Y0025539D02*
X0005300Y0025539D01*
X0005300Y0024940D02*
X0008133Y0024940D01*
X0009137Y0023145D02*
X0005300Y0023145D01*
X0005300Y0023743D02*
X0027599Y0023743D01*
X0028198Y0023145D02*
X0011288Y0023145D01*
X0011087Y0023228D02*
X0009339Y0023228D01*
X0007724Y0022559D01*
X0006488Y0021323D01*
X0005819Y0019709D01*
X0005819Y0017961D01*
X0006488Y0016346D01*
X0007724Y0015110D01*
X0009339Y0014441D01*
X0011087Y0014441D01*
X0012701Y0015110D01*
X0013937Y0016346D01*
X0014606Y0017961D01*
X0014606Y0019709D01*
X0013937Y0021323D01*
X0012701Y0022559D01*
X0011087Y0023228D01*
X0012292Y0024940D02*
X0026402Y0024940D01*
X0027001Y0024342D02*
X0005300Y0024342D01*
X0005300Y0022546D02*
X0007711Y0022546D01*
X0007112Y0021948D02*
X0005300Y0021948D01*
X0005300Y0021349D02*
X0006514Y0021349D01*
X0006251Y0020751D02*
X0005300Y0020751D01*
X0005300Y0020152D02*
X0006003Y0020152D01*
X0005819Y0019554D02*
X0005300Y0019554D01*
X0005300Y0018955D02*
X0005819Y0018955D01*
X0005819Y0018357D02*
X0005300Y0018357D01*
X0005300Y0017758D02*
X0005903Y0017758D01*
X0006151Y0017160D02*
X0005300Y0017160D01*
X0005300Y0016561D02*
X0006399Y0016561D01*
X0006871Y0015963D02*
X0005300Y0015963D01*
X0005300Y0015364D02*
X0007469Y0015364D01*
X0008554Y0014766D02*
X0005300Y0014766D01*
X0005300Y0014167D02*
X0056621Y0014167D01*
X0056621Y0013569D02*
X0005300Y0013569D01*
X0005300Y0012970D02*
X0008716Y0012970D01*
X0007536Y0012372D02*
X0005300Y0012372D01*
X0005300Y0011773D02*
X0006938Y0011773D01*
X0006426Y0011175D02*
X0005300Y0011175D01*
X0005300Y0010576D02*
X0006178Y0010576D01*
X0005930Y0009978D02*
X0005300Y0009978D01*
X0005300Y0009379D02*
X0005819Y0009379D01*
X0005819Y0008781D02*
X0005300Y0008781D01*
X0005300Y0008182D02*
X0005819Y0008182D01*
X0005975Y0007584D02*
X0005300Y0007584D01*
X0005300Y0006985D02*
X0006223Y0006985D01*
X0006471Y0006387D02*
X0005300Y0006387D01*
X0005300Y0005788D02*
X0007046Y0005788D01*
X0011710Y0012970D02*
X0049936Y0012970D01*
X0048757Y0012372D02*
X0012889Y0012372D01*
X0013488Y0011773D02*
X0048158Y0011773D01*
X0047647Y0011175D02*
X0013999Y0011175D01*
X0014247Y0010576D02*
X0047399Y0010576D01*
X0047151Y0009978D02*
X0014495Y0009978D01*
X0014606Y0009379D02*
X0047039Y0009379D01*
X0047039Y0008781D02*
X0014606Y0008781D01*
X0014606Y0008182D02*
X0047039Y0008182D01*
X0047196Y0007584D02*
X0014450Y0007584D01*
X0014202Y0006985D02*
X0047443Y0006985D01*
X0047691Y0006387D02*
X0013954Y0006387D01*
X0013380Y0005788D02*
X0048266Y0005788D01*
X0052930Y0012970D02*
X0056621Y0012970D01*
X0056621Y0012372D02*
X0054110Y0012372D01*
X0054708Y0011773D02*
X0056621Y0011773D01*
X0056621Y0011175D02*
X0055220Y0011175D01*
X0055467Y0010576D02*
X0056621Y0010576D01*
X0056621Y0009978D02*
X0055715Y0009978D01*
X0055827Y0009379D02*
X0056621Y0009379D01*
X0056621Y0008781D02*
X0055827Y0008781D01*
X0055827Y0008182D02*
X0056621Y0008182D01*
X0056621Y0007584D02*
X0055671Y0007584D01*
X0055423Y0006985D02*
X0056621Y0006985D01*
X0056621Y0006387D02*
X0055175Y0006387D01*
X0054600Y0005788D02*
X0056621Y0005788D01*
X0056621Y0014766D02*
X0053091Y0014766D01*
X0052307Y0014441D02*
X0053922Y0015110D01*
X0055158Y0016346D01*
X0055827Y0017961D01*
X0055827Y0019709D01*
X0055158Y0021323D01*
X0053922Y0022559D01*
X0052307Y0023228D01*
X0050559Y0023228D01*
X0048944Y0022559D01*
X0047708Y0021323D01*
X0047039Y0019709D01*
X0047039Y0017961D01*
X0047708Y0016346D01*
X0048944Y0015110D01*
X0050559Y0014441D01*
X0052307Y0014441D01*
X0054176Y0015364D02*
X0056621Y0015364D01*
X0056621Y0015963D02*
X0054775Y0015963D01*
X0055247Y0016561D02*
X0056621Y0016561D01*
X0056621Y0017160D02*
X0055495Y0017160D01*
X0055743Y0017758D02*
X0056621Y0017758D01*
X0056621Y0018357D02*
X0055827Y0018357D01*
X0055827Y0018955D02*
X0056621Y0018955D01*
X0056621Y0019554D02*
X0055827Y0019554D01*
X0055643Y0020152D02*
X0056621Y0020152D01*
X0056621Y0020751D02*
X0055395Y0020751D01*
X0055132Y0021349D02*
X0056621Y0021349D01*
X0056621Y0021948D02*
X0054533Y0021948D01*
X0053935Y0022546D02*
X0056621Y0022546D01*
X0056621Y0023145D02*
X0052508Y0023145D01*
X0052307Y0024441D02*
X0053922Y0025110D01*
X0055158Y0026346D01*
X0055827Y0027961D01*
X0055827Y0029709D01*
X0055158Y0031323D01*
X0053922Y0032559D01*
X0052307Y0033228D01*
X0050559Y0033228D01*
X0048944Y0032559D01*
X0047708Y0031323D01*
X0047039Y0029709D01*
X0047039Y0027961D01*
X0047708Y0026346D01*
X0048944Y0025110D01*
X0050559Y0024441D01*
X0052307Y0024441D01*
X0053513Y0024940D02*
X0056621Y0024940D01*
X0056621Y0024342D02*
X0029811Y0024342D01*
X0029213Y0024940D02*
X0049353Y0024940D01*
X0048515Y0025539D02*
X0028614Y0025539D01*
X0028016Y0026137D02*
X0047917Y0026137D01*
X0047547Y0026736D02*
X0027417Y0026736D01*
X0027191Y0027334D02*
X0047299Y0027334D01*
X0047051Y0027933D02*
X0027191Y0027933D01*
X0027191Y0028532D02*
X0047039Y0028532D01*
X0047039Y0029130D02*
X0027191Y0029130D01*
X0027191Y0029729D02*
X0047048Y0029729D01*
X0047296Y0030327D02*
X0027191Y0030327D01*
X0027191Y0030926D02*
X0047543Y0030926D01*
X0047909Y0031524D02*
X0027191Y0031524D01*
X0027191Y0032123D02*
X0048507Y0032123D01*
X0049335Y0032721D02*
X0027191Y0032721D01*
X0027191Y0033320D02*
X0056621Y0033320D01*
X0056621Y0033918D02*
X0035840Y0033918D01*
X0036438Y0034517D02*
X0050376Y0034517D01*
X0050559Y0034441D02*
X0052307Y0034441D01*
X0053922Y0035110D01*
X0055158Y0036346D01*
X0055827Y0037961D01*
X0055827Y0039709D01*
X0055158Y0041323D01*
X0053922Y0042559D01*
X0052307Y0043228D01*
X0050559Y0043228D01*
X0048944Y0042559D01*
X0047708Y0041323D01*
X0047039Y0039709D01*
X0047039Y0037961D01*
X0047708Y0036346D01*
X0048944Y0035110D01*
X0050559Y0034441D01*
X0048939Y0035115D02*
X0036814Y0035115D01*
X0036814Y0035714D02*
X0048340Y0035714D01*
X0047742Y0036312D02*
X0036814Y0036312D01*
X0036775Y0036911D02*
X0047474Y0036911D01*
X0047226Y0037509D02*
X0036176Y0037509D01*
X0035578Y0038108D02*
X0047039Y0038108D01*
X0047039Y0038706D02*
X0033006Y0038706D01*
X0032408Y0039305D02*
X0047039Y0039305D01*
X0047120Y0039903D02*
X0031809Y0039903D01*
X0031211Y0040502D02*
X0047368Y0040502D01*
X0047616Y0041100D02*
X0030612Y0041100D01*
X0030239Y0041699D02*
X0048084Y0041699D01*
X0048682Y0042297D02*
X0030465Y0042297D01*
X0030465Y0042896D02*
X0049756Y0042896D01*
X0053110Y0042896D02*
X0056621Y0042896D01*
X0056621Y0043494D02*
X0030465Y0043494D01*
X0029181Y0042803D02*
X0029181Y0041126D01*
X0034425Y0035882D01*
X0033010Y0033918D02*
X0027191Y0033918D01*
X0027191Y0034517D02*
X0032412Y0034517D01*
X0032036Y0035115D02*
X0027191Y0035115D01*
X0027191Y0035714D02*
X0032036Y0035714D01*
X0032036Y0036312D02*
X0027191Y0036312D01*
X0027191Y0036911D02*
X0031991Y0036911D01*
X0031393Y0037509D02*
X0027191Y0037509D01*
X0027191Y0038108D02*
X0030794Y0038108D01*
X0030196Y0038706D02*
X0027191Y0038706D01*
X0027191Y0039305D02*
X0029597Y0039305D01*
X0028999Y0039903D02*
X0027191Y0039903D01*
X0027191Y0040502D02*
X0028400Y0040502D01*
X0028187Y0041100D02*
X0027191Y0041100D01*
X0027191Y0041699D02*
X0028123Y0041699D01*
X0027897Y0042297D02*
X0027191Y0042297D01*
X0027191Y0042896D02*
X0027897Y0042896D01*
X0027897Y0043494D02*
X0027734Y0043494D01*
X0027606Y0044772D02*
X0026197Y0043362D01*
X0026197Y0026551D01*
X0027732Y0025016D01*
X0032496Y0020252D01*
X0031013Y0018357D02*
X0014606Y0018357D01*
X0014606Y0018955D02*
X0030414Y0018955D01*
X0030107Y0019554D02*
X0014606Y0019554D01*
X0014422Y0020152D02*
X0030107Y0020152D01*
X0030107Y0020751D02*
X0014175Y0020751D01*
X0013911Y0021349D02*
X0029993Y0021349D01*
X0029395Y0021948D02*
X0013313Y0021948D01*
X0012714Y0022546D02*
X0028796Y0022546D01*
X0030410Y0023743D02*
X0056621Y0023743D01*
X0056621Y0025539D02*
X0054351Y0025539D01*
X0054950Y0026137D02*
X0056621Y0026137D01*
X0056621Y0026736D02*
X0055319Y0026736D01*
X0055567Y0027334D02*
X0056621Y0027334D01*
X0056621Y0027933D02*
X0055815Y0027933D01*
X0055827Y0028532D02*
X0056621Y0028532D01*
X0056621Y0029130D02*
X0055827Y0029130D01*
X0055819Y0029729D02*
X0056621Y0029729D01*
X0056621Y0030327D02*
X0055571Y0030327D01*
X0055323Y0030926D02*
X0056621Y0030926D01*
X0056621Y0031524D02*
X0054957Y0031524D01*
X0054359Y0032123D02*
X0056621Y0032123D01*
X0056621Y0032721D02*
X0053532Y0032721D01*
X0052490Y0034517D02*
X0056621Y0034517D01*
X0056621Y0035115D02*
X0053927Y0035115D01*
X0054526Y0035714D02*
X0056621Y0035714D01*
X0056621Y0036312D02*
X0055124Y0036312D01*
X0055392Y0036911D02*
X0056621Y0036911D01*
X0056621Y0037509D02*
X0055640Y0037509D01*
X0055827Y0038108D02*
X0056621Y0038108D01*
X0056621Y0038706D02*
X0055827Y0038706D01*
X0055827Y0039305D02*
X0056621Y0039305D01*
X0056621Y0039903D02*
X0055746Y0039903D01*
X0055498Y0040502D02*
X0056621Y0040502D01*
X0056621Y0041100D02*
X0055250Y0041100D01*
X0054783Y0041699D02*
X0056621Y0041699D01*
X0056621Y0042297D02*
X0054184Y0042297D01*
X0050358Y0023145D02*
X0031008Y0023145D01*
X0033580Y0022546D02*
X0048931Y0022546D01*
X0048333Y0021948D02*
X0034179Y0021948D01*
X0034777Y0021349D02*
X0047734Y0021349D01*
X0047471Y0020751D02*
X0034885Y0020751D01*
X0034885Y0020152D02*
X0047223Y0020152D01*
X0047039Y0019554D02*
X0034885Y0019554D01*
X0034578Y0018955D02*
X0047039Y0018955D01*
X0047039Y0018357D02*
X0033979Y0018357D01*
X0027732Y0025016D02*
X0027220Y0025528D01*
X0025804Y0025539D02*
X0013131Y0025539D01*
X0013729Y0026137D02*
X0025205Y0026137D01*
X0025203Y0026736D02*
X0014099Y0026736D01*
X0014347Y0027334D02*
X0025203Y0027334D01*
X0025203Y0027933D02*
X0014595Y0027933D01*
X0014606Y0028532D02*
X0025203Y0028532D01*
X0025203Y0029130D02*
X0014606Y0029130D01*
X0014598Y0029729D02*
X0025203Y0029729D01*
X0025203Y0030327D02*
X0014350Y0030327D01*
X0014102Y0030926D02*
X0025203Y0030926D01*
X0025203Y0031524D02*
X0013737Y0031524D01*
X0013138Y0032123D02*
X0025203Y0032123D01*
X0025203Y0032721D02*
X0012311Y0032721D01*
X0011269Y0034517D02*
X0025203Y0034517D01*
X0025203Y0035115D02*
X0012707Y0035115D01*
X0013305Y0035714D02*
X0025203Y0035714D01*
X0025203Y0036312D02*
X0013904Y0036312D01*
X0014171Y0036911D02*
X0025203Y0036911D01*
X0025203Y0037509D02*
X0014419Y0037509D01*
X0014606Y0038108D02*
X0025203Y0038108D01*
X0025203Y0038706D02*
X0014606Y0038706D01*
X0014606Y0039305D02*
X0025203Y0039305D01*
X0025203Y0039903D02*
X0014526Y0039903D01*
X0014278Y0040502D02*
X0025203Y0040502D01*
X0025203Y0041100D02*
X0014030Y0041100D01*
X0013562Y0041699D02*
X0025203Y0041699D01*
X0025203Y0042297D02*
X0012964Y0042297D01*
X0011889Y0042896D02*
X0025203Y0042896D01*
X0026121Y0044691D02*
X0011691Y0044691D01*
X0012881Y0045290D02*
X0026719Y0045290D01*
X0027606Y0044772D02*
X0029181Y0044772D01*
X0027897Y0045888D02*
X0013480Y0045888D01*
X0013996Y0046487D02*
X0027897Y0046487D01*
X0027897Y0047085D02*
X0014244Y0047085D01*
X0014492Y0047684D02*
X0027963Y0047684D01*
X0028187Y0048282D02*
X0014606Y0048282D01*
X0014606Y0048881D02*
X0028187Y0048881D01*
X0028187Y0049479D02*
X0014606Y0049479D01*
X0014453Y0050078D02*
X0028187Y0050078D01*
X0028187Y0050676D02*
X0014205Y0050676D01*
X0013957Y0051275D02*
X0028187Y0051275D01*
X0028187Y0051873D02*
X0013387Y0051873D01*
X0012789Y0052472D02*
X0028187Y0052472D01*
X0028187Y0053070D02*
X0011468Y0053070D01*
X0012113Y0054866D02*
X0027850Y0054866D01*
X0028187Y0054268D02*
X0005300Y0054268D01*
X0005300Y0053669D02*
X0028187Y0053669D01*
X0027251Y0055465D02*
X0013056Y0055465D01*
X0013655Y0056063D02*
X0026800Y0056063D01*
X0026800Y0056662D02*
X0014068Y0056662D01*
X0014316Y0057260D02*
X0026800Y0057260D01*
X0026800Y0057859D02*
X0014564Y0057859D01*
X0014606Y0058457D02*
X0027362Y0058457D01*
X0027961Y0059056D02*
X0014606Y0059056D01*
X0029181Y0056898D02*
X0029181Y0046740D01*
X0029181Y0056898D02*
X0029189Y0056906D01*
X0025203Y0033918D02*
X0005300Y0033918D01*
X0005300Y0033320D02*
X0025203Y0033320D01*
X0014522Y0017758D02*
X0047123Y0017758D01*
X0047371Y0017160D02*
X0014275Y0017160D01*
X0014027Y0016561D02*
X0047619Y0016561D01*
X0048091Y0015963D02*
X0013554Y0015963D01*
X0012956Y0015364D02*
X0048690Y0015364D01*
X0049775Y0014766D02*
X0011871Y0014766D01*
X0052732Y0074617D02*
X0056621Y0074617D01*
X0056621Y0075215D02*
X0054027Y0075215D01*
X0054626Y0075814D02*
X0056621Y0075814D01*
X0056621Y0076412D02*
X0055185Y0076412D01*
X0055433Y0077011D02*
X0056621Y0077011D01*
X0056621Y0077609D02*
X0055681Y0077609D01*
X0055827Y0078208D02*
X0056621Y0078208D01*
X0056621Y0078806D02*
X0055827Y0078806D01*
X0055827Y0079405D02*
X0056621Y0079405D01*
X0056621Y0080003D02*
X0055705Y0080003D01*
X0055457Y0080602D02*
X0056621Y0080602D01*
X0056621Y0081201D02*
X0055209Y0081201D01*
X0054682Y0081799D02*
X0056621Y0081799D01*
X0056621Y0082398D02*
X0054084Y0082398D01*
X0052868Y0082996D02*
X0056621Y0082996D01*
X0056621Y0069230D02*
X0056433Y0069230D01*
D13*
X0034425Y0035882D03*
X0032496Y0020252D03*
X0029189Y0056906D03*
M02*
