G75*
%MOIN*%
%OFA0B0*%
%FSLAX25Y25*%
%IPPOS*%
%LPD*%
%AMOC8*
5,1,8,0,0,1.08239X$1,22.5*
%
%ADD10C,0.00000*%
%ADD11C,0.00500*%
%ADD12C,0.00800*%
D10*
X0001000Y0001000D02*
X0001000Y0046701D01*
X0046701Y0046701D01*
X0046701Y0001000D01*
X0001000Y0001000D01*
D11*
X0021953Y0030579D02*
X0021955Y0030609D01*
X0021961Y0030639D01*
X0021970Y0030668D01*
X0021983Y0030695D01*
X0022000Y0030720D01*
X0022019Y0030743D01*
X0022042Y0030764D01*
X0022067Y0030781D01*
X0022093Y0030795D01*
X0022122Y0030805D01*
X0022151Y0030812D01*
X0022181Y0030815D01*
X0022212Y0030814D01*
X0022242Y0030809D01*
X0022271Y0030800D01*
X0022298Y0030788D01*
X0022324Y0030773D01*
X0022348Y0030754D01*
X0022369Y0030732D01*
X0022387Y0030708D01*
X0022402Y0030681D01*
X0022413Y0030653D01*
X0022421Y0030624D01*
X0022425Y0030594D01*
X0022425Y0030564D01*
X0022421Y0030534D01*
X0022413Y0030505D01*
X0022402Y0030477D01*
X0022387Y0030450D01*
X0022369Y0030426D01*
X0022348Y0030404D01*
X0022324Y0030385D01*
X0022298Y0030370D01*
X0022271Y0030358D01*
X0022242Y0030349D01*
X0022212Y0030344D01*
X0022181Y0030343D01*
X0022151Y0030346D01*
X0022122Y0030353D01*
X0022093Y0030363D01*
X0022067Y0030377D01*
X0022042Y0030394D01*
X0022019Y0030415D01*
X0022000Y0030438D01*
X0021983Y0030463D01*
X0021970Y0030490D01*
X0021961Y0030519D01*
X0021955Y0030549D01*
X0021953Y0030579D01*
D12*
X0021500Y0034000D02*
X0016500Y0034000D01*
X0014000Y0036500D01*
X0014000Y0031500D01*
X0011500Y0029000D01*
X0014000Y0026500D01*
X0014000Y0021500D01*
X0011500Y0019000D01*
X0014000Y0016500D01*
X0014000Y0011500D01*
X0011500Y0009000D01*
X0006500Y0009000D01*
X0004000Y0011500D01*
X0004000Y0016500D01*
X0006500Y0019000D01*
X0004000Y0021500D01*
X0004000Y0026500D01*
X0006500Y0029000D01*
X0004000Y0031500D01*
X0004000Y0036500D01*
X0006500Y0039000D01*
X0011500Y0039000D01*
X0014000Y0036500D01*
X0014000Y0041500D01*
X0016500Y0044000D01*
X0021500Y0044000D01*
X0024000Y0041500D01*
X0026500Y0044000D01*
X0031500Y0044000D01*
X0034000Y0041500D01*
X0036500Y0044000D01*
X0041500Y0044000D01*
X0044000Y0041500D01*
X0044000Y0036500D01*
X0041500Y0034000D01*
X0044000Y0031500D01*
X0044000Y0026500D01*
X0041500Y0024000D01*
X0044000Y0021500D01*
X0044000Y0016500D01*
X0041500Y0014000D01*
X0044000Y0011500D01*
X0044000Y0006500D01*
X0041500Y0004000D01*
X0036500Y0004000D01*
X0034000Y0006500D01*
X0034000Y0011500D01*
X0036500Y0014000D01*
X0034000Y0016500D01*
X0034000Y0021500D01*
X0036500Y0024000D01*
X0034000Y0026500D01*
X0034000Y0031500D01*
X0036500Y0034000D01*
X0041500Y0034000D01*
X0036500Y0034000D01*
X0034000Y0036500D01*
X0031500Y0034000D01*
X0026500Y0034000D01*
X0024000Y0036500D01*
X0021500Y0034000D01*
M02*
