G75*
%MOIN*%
%OFA0B0*%
%FSLAX25Y25*%
%IPPOS*%
%LPD*%
%AMOC8*
5,1,8,0,0,1.08239X$1,22.5*
%
%ADD10R,0.00984X0.00984*%
%ADD11C,0.07400*%
%ADD12C,0.00600*%
%ADD13C,0.02978*%
%ADD14C,0.00394*%
D10*
X0027213Y0040835D03*
X0027213Y0042803D03*
X0027213Y0044772D03*
X0027213Y0046740D03*
X0027213Y0048709D03*
X0029181Y0048709D03*
X0031150Y0048709D03*
X0031150Y0046740D03*
X0031150Y0044772D03*
X0031150Y0042803D03*
X0031150Y0040835D03*
X0029181Y0040835D03*
X0029181Y0042803D03*
X0029181Y0044772D03*
X0029181Y0046740D03*
D11*
X0010213Y0008835D03*
X0010213Y0018835D03*
X0010213Y0028835D03*
X0010213Y0038835D03*
X0010213Y0048835D03*
X0010213Y0058835D03*
X0010213Y0068835D03*
X0010213Y0078835D03*
X0050213Y0078835D03*
X0050213Y0068835D03*
X0050213Y0058835D03*
X0050213Y0048835D03*
X0050213Y0038835D03*
X0050213Y0028835D03*
X0050213Y0018835D03*
X0050213Y0008835D03*
D12*
X0050213Y0028835D02*
X0039213Y0028835D01*
X0029181Y0038866D01*
X0029181Y0040835D01*
X0031150Y0040835D02*
X0048213Y0040835D01*
X0050213Y0038835D01*
X0044181Y0042803D02*
X0050213Y0048835D01*
X0044181Y0042803D02*
X0031150Y0042803D01*
X0031150Y0044772D02*
X0036150Y0044772D01*
X0050213Y0058835D01*
X0042713Y0061335D02*
X0050213Y0068835D01*
X0050213Y0078835D02*
X0031150Y0059772D01*
X0031150Y0048709D01*
X0031150Y0046740D02*
X0035118Y0046740D01*
X0042713Y0054335D01*
X0042713Y0061335D01*
X0029181Y0048997D02*
X0029181Y0048709D01*
X0029181Y0048997D02*
X0019344Y0058835D01*
X0010213Y0058835D01*
X0010213Y0048835D02*
X0027087Y0048835D01*
X0027213Y0048709D01*
X0027118Y0046835D02*
X0021713Y0046835D01*
X0013713Y0038835D01*
X0010213Y0038835D01*
X0010213Y0031835D02*
X0010213Y0028835D01*
X0010213Y0031835D02*
X0023213Y0044835D01*
X0027150Y0044835D01*
X0027213Y0044772D01*
X0027181Y0042835D02*
X0027213Y0042803D01*
X0025681Y0042803D01*
X0021963Y0039085D01*
X0021963Y0030585D01*
X0010213Y0018835D01*
X0010213Y0008835D02*
X0027213Y0025835D01*
X0027213Y0040835D01*
X0027213Y0046740D02*
X0027118Y0046835D01*
D13*
X0040409Y0033835D03*
D14*
X0035882Y0033835D01*
X0030173Y0039543D01*
X0030173Y0041811D01*
X0029181Y0042803D01*
X0028205Y0043795D02*
X0029181Y0044772D01*
X0028205Y0043795D02*
X0028205Y0035094D01*
X0038835Y0024465D01*
X0038835Y0020213D01*
X0050213Y0008835D01*
X0029181Y0046740D02*
X0030134Y0047693D01*
X0030134Y0052181D01*
X0013480Y0068835D01*
X0010213Y0068835D01*
M02*
