G75*
%MOIN*%
%OFA0B0*%
%FSLAX25Y25*%
%IPPOS*%
%LPD*%
%AMOC8*
5,1,8,0,0,1.08239X$1,22.5*
%
%ADD10C,0.00000*%
%ADD11C,0.00500*%
%ADD12C,0.00800*%
D10*
X0001000Y0001000D02*
X0001000Y0046701D01*
X0041921Y0046701D01*
X0041921Y0001000D01*
X0001000Y0001000D01*
D11*
X0023098Y0031669D02*
X0023100Y0031704D01*
X0023106Y0031739D01*
X0023116Y0031773D01*
X0023129Y0031806D01*
X0023146Y0031837D01*
X0023167Y0031865D01*
X0023190Y0031892D01*
X0023217Y0031915D01*
X0023245Y0031936D01*
X0023276Y0031953D01*
X0023309Y0031966D01*
X0023343Y0031976D01*
X0023378Y0031982D01*
X0023413Y0031984D01*
X0023448Y0031982D01*
X0023483Y0031976D01*
X0023517Y0031966D01*
X0023550Y0031953D01*
X0023581Y0031936D01*
X0023609Y0031915D01*
X0023636Y0031892D01*
X0023659Y0031865D01*
X0023680Y0031837D01*
X0023697Y0031806D01*
X0023710Y0031773D01*
X0023720Y0031739D01*
X0023726Y0031704D01*
X0023728Y0031669D01*
X0023726Y0031634D01*
X0023720Y0031599D01*
X0023710Y0031565D01*
X0023697Y0031532D01*
X0023680Y0031501D01*
X0023659Y0031473D01*
X0023636Y0031446D01*
X0023609Y0031423D01*
X0023581Y0031402D01*
X0023550Y0031385D01*
X0023517Y0031372D01*
X0023483Y0031362D01*
X0023448Y0031356D01*
X0023413Y0031354D01*
X0023378Y0031356D01*
X0023343Y0031362D01*
X0023309Y0031372D01*
X0023276Y0031385D01*
X0023245Y0031402D01*
X0023217Y0031423D01*
X0023190Y0031446D01*
X0023167Y0031473D01*
X0023146Y0031501D01*
X0023129Y0031532D01*
X0023116Y0031565D01*
X0023106Y0031599D01*
X0023100Y0031634D01*
X0023098Y0031669D01*
D12*
X0029000Y0031500D02*
X0029000Y0026500D01*
X0031500Y0024000D01*
X0029000Y0021500D01*
X0029000Y0016500D01*
X0031500Y0014000D01*
X0029000Y0011500D01*
X0029000Y0006500D01*
X0031500Y0004000D01*
X0036500Y0004000D01*
X0039000Y0006500D01*
X0039000Y0011500D01*
X0036500Y0014000D01*
X0039000Y0016500D01*
X0039000Y0021500D01*
X0036500Y0024000D01*
X0039000Y0026500D01*
X0039000Y0031500D01*
X0036500Y0034000D01*
X0039000Y0036500D01*
X0039000Y0041500D01*
X0036500Y0044000D01*
X0031500Y0044000D01*
X0029000Y0041500D01*
X0029000Y0036500D01*
X0031500Y0034000D01*
X0029000Y0031500D01*
X0014000Y0031500D02*
X0014000Y0026500D01*
X0011500Y0024000D01*
X0014000Y0021500D01*
X0014000Y0016500D01*
X0011500Y0014000D01*
X0014000Y0011500D01*
X0014000Y0006500D01*
X0011500Y0004000D01*
X0006500Y0004000D01*
X0004000Y0006500D01*
X0004000Y0011500D01*
X0006500Y0014000D01*
X0004000Y0016500D01*
X0004000Y0021500D01*
X0006500Y0024000D01*
X0004000Y0026500D01*
X0004000Y0031500D01*
X0006500Y0034000D01*
X0004000Y0036500D01*
X0004000Y0041500D01*
X0006500Y0044000D01*
X0011500Y0044000D01*
X0014000Y0041500D01*
X0014000Y0036500D01*
X0011500Y0034000D01*
X0014000Y0031500D01*
M02*
