G75*
%MOIN*%
%OFA0B0*%
%FSLAX25Y25*%
%IPPOS*%
%LPD*%
%AMOC8*
5,1,8,0,0,1.08239X$1,22.5*
%
%ADD10C,0.00000*%
%ADD11C,0.00300*%
D10*
X0001000Y0001000D02*
X0001000Y0046701D01*
X0041921Y0046701D01*
X0041921Y0001000D01*
X0001000Y0001000D01*
D11*
X0015150Y0007650D02*
X0015794Y0007650D01*
X0015842Y0007652D01*
X0015890Y0007657D01*
X0015937Y0007666D01*
X0015984Y0007679D01*
X0016029Y0007695D01*
X0016073Y0007714D01*
X0016116Y0007736D01*
X0016157Y0007762D01*
X0016196Y0007791D01*
X0016232Y0007822D01*
X0016266Y0007856D01*
X0016297Y0007892D01*
X0016326Y0007931D01*
X0016352Y0007972D01*
X0016374Y0008015D01*
X0016393Y0008059D01*
X0016409Y0008104D01*
X0016422Y0008151D01*
X0016431Y0008198D01*
X0016436Y0008246D01*
X0016438Y0008294D01*
X0016439Y0008294D02*
X0016439Y0009906D01*
X0016438Y0009906D02*
X0016436Y0009954D01*
X0016431Y0010002D01*
X0016422Y0010049D01*
X0016409Y0010096D01*
X0016393Y0010141D01*
X0016374Y0010185D01*
X0016352Y0010228D01*
X0016326Y0010269D01*
X0016297Y0010308D01*
X0016266Y0010344D01*
X0016232Y0010378D01*
X0016196Y0010409D01*
X0016157Y0010438D01*
X0016116Y0010464D01*
X0016073Y0010486D01*
X0016029Y0010505D01*
X0015984Y0010521D01*
X0015937Y0010534D01*
X0015890Y0010543D01*
X0015842Y0010548D01*
X0015794Y0010550D01*
X0015150Y0010550D01*
X0018362Y0010550D02*
X0019167Y0010550D01*
X0019167Y0007650D01*
X0019167Y0008939D02*
X0018362Y0008939D01*
X0018362Y0008938D02*
X0018307Y0008940D01*
X0018252Y0008946D01*
X0018198Y0008955D01*
X0018145Y0008968D01*
X0018092Y0008985D01*
X0018041Y0009005D01*
X0017991Y0009028D01*
X0017943Y0009055D01*
X0017897Y0009086D01*
X0017853Y0009119D01*
X0017812Y0009155D01*
X0017773Y0009194D01*
X0017737Y0009235D01*
X0017704Y0009279D01*
X0017673Y0009325D01*
X0017646Y0009373D01*
X0017623Y0009423D01*
X0017603Y0009474D01*
X0017586Y0009527D01*
X0017573Y0009580D01*
X0017564Y0009634D01*
X0017558Y0009689D01*
X0017556Y0009744D01*
X0017558Y0009799D01*
X0017564Y0009854D01*
X0017573Y0009908D01*
X0017586Y0009961D01*
X0017603Y0010014D01*
X0017623Y0010065D01*
X0017646Y0010115D01*
X0017673Y0010163D01*
X0017704Y0010209D01*
X0017737Y0010253D01*
X0017773Y0010294D01*
X0017812Y0010333D01*
X0017853Y0010369D01*
X0017897Y0010402D01*
X0017943Y0010433D01*
X0017991Y0010460D01*
X0018041Y0010483D01*
X0018092Y0010503D01*
X0018145Y0010520D01*
X0018198Y0010533D01*
X0018252Y0010542D01*
X0018307Y0010548D01*
X0018362Y0010550D01*
X0023582Y0008375D02*
X0025032Y0008375D01*
X0025273Y0007650D02*
X0024307Y0010550D01*
X0023340Y0007650D01*
X0027044Y0008939D02*
X0027850Y0008939D01*
X0027044Y0008938D02*
X0026989Y0008940D01*
X0026934Y0008946D01*
X0026880Y0008955D01*
X0026827Y0008968D01*
X0026774Y0008985D01*
X0026723Y0009005D01*
X0026673Y0009028D01*
X0026625Y0009055D01*
X0026579Y0009086D01*
X0026535Y0009119D01*
X0026494Y0009155D01*
X0026455Y0009194D01*
X0026419Y0009235D01*
X0026386Y0009279D01*
X0026355Y0009325D01*
X0026328Y0009373D01*
X0026305Y0009423D01*
X0026285Y0009474D01*
X0026268Y0009527D01*
X0026255Y0009580D01*
X0026246Y0009634D01*
X0026240Y0009689D01*
X0026238Y0009744D01*
X0026240Y0009799D01*
X0026246Y0009854D01*
X0026255Y0009908D01*
X0026268Y0009961D01*
X0026285Y0010014D01*
X0026305Y0010065D01*
X0026328Y0010115D01*
X0026355Y0010163D01*
X0026386Y0010209D01*
X0026419Y0010253D01*
X0026455Y0010294D01*
X0026494Y0010333D01*
X0026535Y0010369D01*
X0026579Y0010402D01*
X0026625Y0010433D01*
X0026673Y0010460D01*
X0026723Y0010483D01*
X0026774Y0010503D01*
X0026827Y0010520D01*
X0026880Y0010533D01*
X0026934Y0010542D01*
X0026989Y0010548D01*
X0027044Y0010550D01*
X0027850Y0010550D01*
X0027850Y0007650D01*
X0027850Y0017150D02*
X0027850Y0020050D01*
X0027044Y0020050D01*
X0026989Y0020048D01*
X0026934Y0020042D01*
X0026880Y0020033D01*
X0026827Y0020020D01*
X0026774Y0020003D01*
X0026723Y0019983D01*
X0026673Y0019960D01*
X0026625Y0019933D01*
X0026579Y0019902D01*
X0026535Y0019869D01*
X0026494Y0019833D01*
X0026455Y0019794D01*
X0026419Y0019753D01*
X0026386Y0019709D01*
X0026355Y0019663D01*
X0026328Y0019615D01*
X0026305Y0019565D01*
X0026285Y0019514D01*
X0026268Y0019461D01*
X0026255Y0019408D01*
X0026246Y0019354D01*
X0026240Y0019299D01*
X0026238Y0019244D01*
X0026240Y0019189D01*
X0026246Y0019134D01*
X0026255Y0019080D01*
X0026268Y0019027D01*
X0026285Y0018974D01*
X0026305Y0018923D01*
X0026328Y0018873D01*
X0026355Y0018825D01*
X0026386Y0018779D01*
X0026419Y0018735D01*
X0026455Y0018694D01*
X0026494Y0018655D01*
X0026535Y0018619D01*
X0026579Y0018586D01*
X0026625Y0018555D01*
X0026673Y0018528D01*
X0026723Y0018505D01*
X0026774Y0018485D01*
X0026827Y0018468D01*
X0026880Y0018455D01*
X0026934Y0018446D01*
X0026989Y0018440D01*
X0027044Y0018438D01*
X0027044Y0018439D02*
X0027850Y0018439D01*
X0026883Y0018439D02*
X0026239Y0017150D01*
X0025151Y0017150D02*
X0024185Y0020050D01*
X0023218Y0017150D01*
X0023460Y0017875D02*
X0024910Y0017875D01*
X0019290Y0017650D02*
X0019290Y0020550D01*
X0018484Y0020550D01*
X0018429Y0020548D01*
X0018374Y0020542D01*
X0018320Y0020533D01*
X0018267Y0020520D01*
X0018214Y0020503D01*
X0018163Y0020483D01*
X0018113Y0020460D01*
X0018065Y0020433D01*
X0018019Y0020402D01*
X0017975Y0020369D01*
X0017934Y0020333D01*
X0017895Y0020294D01*
X0017859Y0020253D01*
X0017826Y0020209D01*
X0017795Y0020163D01*
X0017768Y0020115D01*
X0017745Y0020065D01*
X0017725Y0020014D01*
X0017708Y0019961D01*
X0017695Y0019908D01*
X0017686Y0019854D01*
X0017680Y0019799D01*
X0017678Y0019744D01*
X0017680Y0019689D01*
X0017686Y0019634D01*
X0017695Y0019580D01*
X0017708Y0019527D01*
X0017725Y0019474D01*
X0017745Y0019423D01*
X0017768Y0019373D01*
X0017795Y0019325D01*
X0017826Y0019279D01*
X0017859Y0019235D01*
X0017895Y0019194D01*
X0017934Y0019155D01*
X0017975Y0019119D01*
X0018019Y0019086D01*
X0018065Y0019055D01*
X0018113Y0019028D01*
X0018163Y0019005D01*
X0018214Y0018985D01*
X0018267Y0018968D01*
X0018320Y0018955D01*
X0018374Y0018946D01*
X0018429Y0018940D01*
X0018484Y0018938D01*
X0018484Y0018939D02*
X0019290Y0018939D01*
X0018323Y0018939D02*
X0017679Y0017650D01*
X0016439Y0018294D02*
X0016439Y0019906D01*
X0016438Y0019906D02*
X0016436Y0019954D01*
X0016431Y0020002D01*
X0016422Y0020049D01*
X0016409Y0020096D01*
X0016393Y0020141D01*
X0016374Y0020185D01*
X0016352Y0020228D01*
X0016326Y0020269D01*
X0016297Y0020308D01*
X0016266Y0020344D01*
X0016232Y0020378D01*
X0016196Y0020409D01*
X0016157Y0020438D01*
X0016116Y0020464D01*
X0016073Y0020486D01*
X0016029Y0020505D01*
X0015984Y0020521D01*
X0015937Y0020534D01*
X0015890Y0020543D01*
X0015842Y0020548D01*
X0015794Y0020550D01*
X0015150Y0020550D01*
X0016438Y0018294D02*
X0016436Y0018246D01*
X0016431Y0018198D01*
X0016422Y0018151D01*
X0016409Y0018104D01*
X0016393Y0018059D01*
X0016374Y0018015D01*
X0016352Y0017972D01*
X0016326Y0017931D01*
X0016297Y0017892D01*
X0016266Y0017856D01*
X0016232Y0017822D01*
X0016196Y0017791D01*
X0016157Y0017762D01*
X0016116Y0017736D01*
X0016073Y0017714D01*
X0016029Y0017695D01*
X0015984Y0017679D01*
X0015937Y0017666D01*
X0015890Y0017657D01*
X0015842Y0017652D01*
X0015794Y0017650D01*
X0015150Y0017650D01*
X0023102Y0026650D02*
X0024068Y0029550D01*
X0025035Y0026650D01*
X0024793Y0027375D02*
X0023343Y0027375D01*
X0026239Y0026650D02*
X0027206Y0026650D01*
X0027254Y0026652D01*
X0027302Y0026657D01*
X0027349Y0026666D01*
X0027396Y0026679D01*
X0027441Y0026695D01*
X0027485Y0026714D01*
X0027528Y0026736D01*
X0027569Y0026762D01*
X0027608Y0026791D01*
X0027644Y0026822D01*
X0027678Y0026856D01*
X0027709Y0026892D01*
X0027738Y0026931D01*
X0027764Y0026972D01*
X0027786Y0027015D01*
X0027805Y0027059D01*
X0027821Y0027104D01*
X0027834Y0027151D01*
X0027843Y0027198D01*
X0027848Y0027246D01*
X0027850Y0027294D01*
X0027850Y0028906D01*
X0027848Y0028954D01*
X0027843Y0029002D01*
X0027834Y0029049D01*
X0027821Y0029096D01*
X0027805Y0029141D01*
X0027786Y0029185D01*
X0027764Y0029228D01*
X0027738Y0029269D01*
X0027709Y0029308D01*
X0027678Y0029344D01*
X0027644Y0029378D01*
X0027608Y0029409D01*
X0027569Y0029438D01*
X0027528Y0029464D01*
X0027485Y0029486D01*
X0027441Y0029505D01*
X0027396Y0029521D01*
X0027349Y0029534D01*
X0027302Y0029543D01*
X0027254Y0029548D01*
X0027206Y0029550D01*
X0026239Y0029550D01*
X0026239Y0028261D02*
X0026239Y0026650D01*
X0026239Y0028261D02*
X0026722Y0028261D01*
X0018743Y0027650D02*
X0018098Y0027650D01*
X0018421Y0027650D02*
X0018421Y0030550D01*
X0018743Y0030550D02*
X0018098Y0030550D01*
X0016117Y0030550D02*
X0015150Y0027650D01*
X0015392Y0028375D02*
X0016842Y0028375D01*
X0017083Y0027650D02*
X0016117Y0030550D01*
X0016294Y0037650D02*
X0015650Y0037650D01*
X0016294Y0037650D02*
X0016342Y0037652D01*
X0016390Y0037657D01*
X0016437Y0037666D01*
X0016484Y0037679D01*
X0016529Y0037695D01*
X0016573Y0037714D01*
X0016616Y0037736D01*
X0016657Y0037762D01*
X0016696Y0037791D01*
X0016732Y0037822D01*
X0016766Y0037856D01*
X0016797Y0037892D01*
X0016826Y0037931D01*
X0016852Y0037972D01*
X0016874Y0038015D01*
X0016893Y0038059D01*
X0016909Y0038104D01*
X0016922Y0038151D01*
X0016931Y0038198D01*
X0016936Y0038246D01*
X0016938Y0038294D01*
X0016939Y0038294D02*
X0016939Y0039906D01*
X0016938Y0039906D02*
X0016936Y0039954D01*
X0016931Y0040002D01*
X0016922Y0040049D01*
X0016909Y0040096D01*
X0016893Y0040141D01*
X0016874Y0040185D01*
X0016852Y0040228D01*
X0016826Y0040269D01*
X0016797Y0040308D01*
X0016766Y0040344D01*
X0016732Y0040378D01*
X0016696Y0040409D01*
X0016657Y0040438D01*
X0016616Y0040464D01*
X0016573Y0040486D01*
X0016529Y0040505D01*
X0016484Y0040521D01*
X0016437Y0040534D01*
X0016390Y0040543D01*
X0016342Y0040548D01*
X0016294Y0040550D01*
X0015650Y0040550D01*
X0018106Y0040550D02*
X0018750Y0040550D01*
X0018428Y0040550D02*
X0018428Y0037650D01*
X0018750Y0037650D02*
X0018106Y0037650D01*
X0023594Y0038150D02*
X0024239Y0038150D01*
X0024287Y0038152D01*
X0024335Y0038157D01*
X0024382Y0038166D01*
X0024429Y0038179D01*
X0024474Y0038195D01*
X0024518Y0038214D01*
X0024561Y0038236D01*
X0024602Y0038262D01*
X0024641Y0038291D01*
X0024677Y0038322D01*
X0024711Y0038356D01*
X0024742Y0038392D01*
X0024771Y0038431D01*
X0024797Y0038472D01*
X0024819Y0038515D01*
X0024838Y0038559D01*
X0024854Y0038604D01*
X0024867Y0038651D01*
X0024876Y0038698D01*
X0024881Y0038746D01*
X0024883Y0038794D01*
X0024883Y0040406D01*
X0024881Y0040454D01*
X0024876Y0040502D01*
X0024867Y0040549D01*
X0024854Y0040596D01*
X0024838Y0040641D01*
X0024819Y0040685D01*
X0024797Y0040728D01*
X0024771Y0040769D01*
X0024742Y0040808D01*
X0024711Y0040844D01*
X0024677Y0040878D01*
X0024641Y0040909D01*
X0024602Y0040938D01*
X0024561Y0040964D01*
X0024518Y0040986D01*
X0024474Y0041005D01*
X0024429Y0041021D01*
X0024382Y0041034D01*
X0024335Y0041043D01*
X0024287Y0041048D01*
X0024239Y0041050D01*
X0023594Y0041050D01*
X0026239Y0041050D02*
X0027206Y0041050D01*
X0027254Y0041048D01*
X0027302Y0041043D01*
X0027349Y0041034D01*
X0027396Y0041021D01*
X0027441Y0041005D01*
X0027485Y0040986D01*
X0027528Y0040964D01*
X0027569Y0040938D01*
X0027608Y0040909D01*
X0027644Y0040878D01*
X0027678Y0040844D01*
X0027709Y0040808D01*
X0027738Y0040769D01*
X0027764Y0040728D01*
X0027786Y0040685D01*
X0027805Y0040641D01*
X0027821Y0040596D01*
X0027834Y0040549D01*
X0027843Y0040502D01*
X0027848Y0040454D01*
X0027850Y0040406D01*
X0027850Y0038794D01*
X0027848Y0038746D01*
X0027843Y0038698D01*
X0027834Y0038651D01*
X0027821Y0038604D01*
X0027805Y0038559D01*
X0027786Y0038515D01*
X0027764Y0038472D01*
X0027738Y0038431D01*
X0027709Y0038392D01*
X0027678Y0038356D01*
X0027644Y0038322D01*
X0027608Y0038291D01*
X0027569Y0038262D01*
X0027528Y0038236D01*
X0027485Y0038214D01*
X0027441Y0038195D01*
X0027396Y0038179D01*
X0027349Y0038166D01*
X0027302Y0038157D01*
X0027254Y0038152D01*
X0027206Y0038150D01*
X0026239Y0038150D01*
X0026239Y0039761D01*
X0026722Y0039761D01*
M02*
